<svg width="84" height="84" viewBox="0 0 84 84" fill="none" xmlns="http://www.w3.org/2000/svg">
<g id="g20">
<g id="g22">
<g id="g28">
<path id="path30" d="M26.4241 57.583V37.5301L0.837332 54.2062C-0.693775 55.2043 0.012977 57.583 1.84078 57.583H26.4241ZM46.4727 57.583H80.3254C82.355 57.583 84 55.9377 84 53.9084V1.14441e-05L46.4727 57.583Z" fill="url(#paint0_linear_5_12)"/>
</g>
<g id="g32">
<path id="path34" d="M46.4725 57.5835H26.4238V82.1603C26.4238 83.9881 28.8025 84.6948 29.8006 83.1634L46.4725 57.5835ZM26.4238 37.5306L84 0.000488281H30.0987C28.0691 0.000488281 26.4238 1.6458 26.4238 3.67537V37.5306Z" fill="url(#paint1_linear_5_12)"/>
</g>
<g id="g36">
<path id="path38" d="M26.25 57.583H46.2986L83.8259 1.14441e-05L26.25 37.5301V57.583Z" fill="white"/>
</g>
</g>
</g>
<defs>
<linearGradient id="paint0_linear_5_12" x1="-13.8495" y1="65.3227" x2="42.4758" y2="-29.4012" gradientUnits="userSpaceOnUse">
<stop stop-color="#3644DB"/>
<stop offset="1" stop-color="#D15BB2"/>
</linearGradient>
<linearGradient id="paint1_linear_5_12" x1="16.931" y1="95.2914" x2="107.916" y2="23.3958" gradientUnits="userSpaceOnUse">
<stop stop-color="#3644DB"/>
<stop offset="1" stop-color="#D15BB2"/>
</linearGradient>
</defs>
</svg>
