<svg width="64" height="64" viewBox="0 0 64 64" fill="none" xmlns="http://www.w3.org/2000/svg">
<path d="M31.9998 5.33337L31.2538 5.34363C16.8783 5.73914 5.33318 17.5295 5.33318 32C5.33318 46.6934 17.2798 58.6667 31.9998 58.6667C46.6932 58.6667 58.6665 46.6934 58.6665 32C58.6665 17.28 46.6932 5.33337 31.9998 5.33337ZM26.7198 21.3334C27.5198 20.5334 28.7732 20.5334 29.5465 21.3334L38.8532 30.5867C39.2265 30.96 39.4398 31.4667 39.4398 32C39.4398 32.5334 39.2265 33.04 38.8532 33.4134L29.5465 42.6667C29.1732 43.0667 28.6665 43.2534 28.1598 43.2534C27.6265 43.2534 27.1198 43.0667 26.7198 42.6667C25.9465 41.8667 25.9465 40.6134 26.7465 39.84L34.6132 32L26.7465 24.16C25.9465 23.3867 25.9465 22.1067 26.7198 21.3334Z" fill="url('#paint0_linear_1_81')"></path>
<defs>
<linearGradient id="paint0_linear_1_81" x1="67.4598" y1="-1.83509" x2="8.67845" y2="65.9307" gradientUnits="userSpaceOnUse">
<stop stop-color="#3644DB"></stop>
<stop offset="1" stop-color="#D15BB2"></stop>
</linearGradient>
</defs>
</svg>
