<svg width="49" height="48" viewBox="0 0 49 48" fill="none" xmlns="http://www.w3.org/2000/svg">
<path fill-rule="evenodd" clip-rule="evenodd" d="M26.698 14.2296L42.574 24.2316C43.012 24.5076 43.274 24.9856 43.274 25.5016C43.274 26.0156 43.012 26.4956 42.574 26.7696L26.698 36.7716C26.456 36.9256 26.178 37.0036 25.9 37.0036C25.65 37.0036 25.402 36.9396 25.176 36.8156C24.696 36.5516 24.4 36.0496 24.4 35.5036L24.398 27L8 27.0008C7.172 27.0008 6.5 26.3288 6.5 25.5008C6.5 24.6728 7.172 24.0008 8 24.0008L24.398 24L24.4 15.4996C24.4 14.9516 24.696 14.4496 25.176 14.1856C25.654 13.9236 26.24 13.9396 26.698 14.2296ZM27.4 18.2176L27.3997 25.4704C27.3999 25.4805 27.4 25.4907 27.4 25.5008L27.398 25.53L27.4 32.7836L38.96 25.5016L27.4 18.2176Z" fill="#0D0D0D"></path>
</svg>
