<svg width="84" height="85" viewBox="0 0 84 85" fill="none" xmlns="http://www.w3.org/2000/svg">
<path d="M69.0674 34.7459C69.0674 36.9082 70.8265 38.668 72.9895 38.668C75.1525 38.668 76.9117 36.9082 76.9117 34.7459C76.9117 32.5835 75.1525 30.8237 72.9895 30.8237C70.8265 30.8237 69.0674 32.5835 69.0674 34.7459ZM72.9894 33.4487C73.7046 33.4487 74.2865 34.0307 74.2865 34.7459C74.2865 35.4611 73.7046 36.043 72.9894 36.043C72.2742 36.043 71.6923 35.4611 71.6923 34.7459C71.6923 34.0307 72.2742 33.4487 72.9894 33.4487Z" fill="white"></path>
<path d="M62.6184 30.8237C60.4556 30.8237 58.6963 32.5835 58.6963 34.7459C58.6963 36.9082 60.4554 38.668 62.6184 38.668C64.7808 38.668 66.5399 36.9082 66.5399 34.7459C66.5399 32.5835 64.7806 30.8237 62.6184 30.8237ZM62.6184 36.0429C61.9033 36.0429 61.3213 35.4609 61.3213 34.7457C61.3213 34.0306 61.9033 33.4486 62.6184 33.4486C63.333 33.4486 63.9149 34.0306 63.9149 34.7457C63.9149 35.4609 63.333 36.0429 62.6184 36.0429Z" fill="white"></path>
<path d="M52.2522 30.8237C50.0894 30.8237 48.3301 32.5835 48.3301 34.7459C48.3301 36.9082 50.0892 38.668 52.2522 38.668C54.4152 38.668 56.1744 36.9082 56.1744 34.7459C56.1744 32.5835 54.4152 30.8237 52.2522 30.8237ZM52.2522 36.0429C51.537 36.0429 50.9551 35.4609 50.9551 34.7457C50.9551 34.0306 51.537 33.4486 52.2522 33.4486C52.9674 33.4486 53.5494 34.0306 53.5494 34.7457C53.5494 35.4609 52.9675 36.0429 52.2522 36.0429Z" fill="white"></path>
<path d="M78.9941 25.7888H72.456V5.96299C72.456 3.93019 70.7994 2.27539 68.7627 2.27539H5.00076C2.96717 2.27539 1.3125 3.93019 1.3125 5.96299V56.0187C1.3125 58.0528 2.96717 59.7075 5.00076 59.7075H11.5441V79.5373C11.5441 81.5701 13.1988 83.2249 15.2329 83.2249H78.9941C81.0309 83.2249 82.6875 81.5702 82.6875 79.5373V29.4815C82.6875 27.4449 81.0309 25.7888 78.9941 25.7888ZM80.0625 29.4815V41.0735H14.169V29.4815C14.169 28.9022 14.656 28.4138 15.2327 28.4138H78.9941C79.5735 28.4138 80.0625 28.9022 80.0625 29.4815ZM5.00076 4.90039H68.7628C69.3517 4.90039 69.8312 5.37722 69.8312 5.96299V17.555H3.9375V5.96299C3.9375 5.37722 4.41433 4.90039 5.00076 4.90039ZM5.00076 57.0825C4.41433 57.0825 3.9375 56.6057 3.9375 56.0187V20.18H69.831V25.7888H15.2329C13.1988 25.7888 11.5441 27.4448 11.5441 29.4815V57.0825H5.00076ZM78.9941 80.5999H15.2329C14.6465 80.5999 14.1691 80.123 14.1691 79.5373V43.6987H80.0625V79.5374C80.0625 80.1128 79.5735 80.5999 78.9941 80.5999Z" fill="white"></path>
<path d="M62.7581 15.1503C64.921 15.1503 66.6802 13.3905 66.6802 11.2281C66.6802 9.06462 64.9211 7.30469 62.7581 7.30469C60.5951 7.30469 58.8359 9.06449 58.8359 11.2281C58.8359 13.3905 60.5952 15.1503 62.7581 15.1503ZM62.7581 9.92969C63.4733 9.92969 64.0552 10.5116 64.0552 11.2281C64.0552 11.9433 63.4733 12.5253 62.7581 12.5253C62.0429 12.5253 61.4609 11.9433 61.4609 11.2281C61.4609 10.5116 62.0429 9.92969 62.7581 9.92969Z" fill="white"></path>
<path d="M52.387 15.1503C54.5518 15.1503 56.3136 13.3905 56.3136 11.2281C56.3136 9.06462 54.5518 7.30469 52.387 7.30469C50.2241 7.30469 48.4648 9.06449 48.4648 11.2281C48.4648 13.3905 50.224 15.1503 52.387 15.1503ZM52.387 9.92969C53.1048 9.92969 53.6886 10.5116 53.6886 11.2281C53.6886 11.9433 53.1048 12.5253 52.387 12.5253C51.6718 12.5253 51.0898 11.9433 51.0898 11.2281C51.0898 10.5116 51.6718 9.92969 52.387 9.92969Z" fill="white"></path>
<path d="M42.0208 15.1503C44.1831 15.1503 45.9423 13.3905 45.9423 11.2281C45.9423 9.06462 44.1831 7.30469 42.0208 7.30469C39.8579 7.30469 38.0986 9.06449 38.0986 11.2281C38.0986 13.3905 39.8579 15.1503 42.0208 15.1503ZM42.0208 9.92969C42.7353 9.92969 43.3173 10.5116 43.3173 11.2281C43.3173 11.9433 42.7353 12.5253 42.0208 12.5253C41.3056 12.5253 40.7236 11.9433 40.7236 11.2281C40.7236 10.5116 41.3056 9.92969 42.0208 9.92969Z" fill="white"></path>
<path d="M47.7284 52.5967C48.4532 52.5967 49.0409 52.0096 49.0409 51.2842C49.0409 50.5588 48.4532 49.9717 47.7284 49.9717H21.04C20.3153 49.9717 19.7275 50.5588 19.7275 51.2842C19.7275 52.0096 20.3153 52.5967 21.04 52.5967H47.7284Z" fill="white"></path>
<path d="M39.0964 58.0029H21.7051C20.9803 58.0029 20.3926 58.59 20.3926 59.3154C20.3926 60.0408 20.9803 60.6279 21.7051 60.6279H39.0964C39.8211 60.6279 40.4089 60.0408 40.4089 59.3154C40.4089 58.59 39.8211 58.0029 39.0964 58.0029Z" fill="white"></path>
<path d="M56.9831 68.6876L53.3333 73.1724C52.9085 73.6953 52.142 73.7748 51.6247 73.3544L48.6492 70.9344C48.1307 70.5114 48.0518 69.7449 48.4735 69.2258L55.6327 60.4267C56.0531 59.9076 56.8183 59.8294 57.3393 60.2537L58.3231 61.0535C58.887 61.5099 59.7125 61.4266 60.1694 60.8626C60.6269 60.2999 60.5417 59.4732 59.979 59.0156L58.9947 58.2158C57.3514 56.8815 54.9303 57.1302 53.596 58.7708L46.4368 67.57C45.1038 69.2093 45.3518 71.6318 46.9912 72.9687L49.9674 75.3898C50.675 75.9667 51.5298 76.2473 52.3803 76.2473C53.4967 76.2473 54.6061 75.764 55.3674 74.831L59.0191 70.3437C59.4766 69.7823 59.3921 68.9556 58.8301 68.4979C58.2674 68.0404 57.442 68.1236 56.9831 68.6876Z" fill="white"></path>
<path d="M66.5161 48.9792C65.7227 48.3318 64.7178 48.0294 63.7014 48.1371C62.6812 48.2409 61.7634 48.7357 61.1149 49.5303L57.4633 54.0228C57.0057 54.5855 57.0916 55.4122 57.6536 55.8698C58.2175 56.3273 59.043 56.2415 59.4999 55.6788L63.1503 51.1889C63.3548 50.9377 63.6457 50.7814 63.9693 50.748C64.293 50.7147 64.6064 50.8096 64.8576 51.0146L67.8338 53.4319C68.3427 53.8485 68.4241 54.6278 68.0095 55.1366L60.8496 63.9358C60.4279 64.4535 59.6634 64.5291 59.143 64.1101L58.1599 63.3102C57.5998 62.8514 56.7712 62.9372 56.3136 63.4999C55.8568 64.0612 55.9413 64.888 56.5039 65.3456L57.4877 66.1468C58.199 66.7248 59.0558 67.0056 59.9077 67.0056C61.0234 67.0056 62.1302 66.5223 62.8864 65.5919L70.0455 56.794C71.3792 55.1572 71.1318 52.7374 69.4918 51.3967L66.5161 48.9792Z" fill="white"></path>
</svg>
