<svg width="84" height="85" viewBox="0 0 84 85" fill="none" xmlns="http://www.w3.org/2000/svg">
<path d="M17.1171 70.6636L17.1709 70.6905C17.3561 70.7827 17.5503 70.8263 17.7413 70.8263C18.2181 70.8263 18.6732 70.5533 18.9051 70.0894C19.2294 69.442 18.9397 68.6397 18.2911 68.3154C17.6413 67.9924 16.8536 68.2551 16.53 68.9025C16.2058 69.5511 16.4686 70.3394 17.1171 70.6636Z" fill="white"></path>
<path d="M18.3758 73.8988C17.7516 73.5258 16.9473 73.7322 16.5762 74.3552C16.2059 74.9781 16.4102 75.7844 17.0326 76.1548L17.0864 76.1868C17.2927 76.3099 17.5164 76.3675 17.7362 76.3675C18.1804 76.3675 18.611 76.1304 18.8591 75.7139C19.2295 75.0909 18.9981 74.2692 18.3758 73.8988Z" fill="white"></path>
<path d="M42.6107 76.1709C41.9698 75.8288 41.1746 76.0774 40.8367 76.7183C40.4984 77.3591 40.7432 78.1526 41.3841 78.4909L41.452 78.5267C41.643 78.6279 41.8449 78.6755 42.0423 78.6755C42.5089 78.6755 42.9542 78.4114 43.192 77.9616C43.5304 77.3207 43.2516 76.5093 42.6107 76.1709Z" fill="white"></path>
<path d="M66.8775 68.3128C66.2276 67.9898 65.4407 68.2577 65.1195 68.9075C64.7983 69.5573 65.065 70.3456 65.7148 70.666L65.7693 70.6929C65.9525 70.7839 66.1448 70.8263 66.334 70.8263C66.8133 70.8263 67.2696 70.5506 67.5004 70.0842C67.8214 69.4344 67.5273 68.6333 66.8775 68.3128Z" fill="white"></path>
<path d="M66.9614 73.895C66.3365 73.5258 65.5322 73.7361 65.165 74.3616C64.7971 74.9858 65.006 75.7908 65.6309 76.1586L65.6854 76.1906C65.8899 76.3111 66.1109 76.3675 66.3288 76.3675C66.7754 76.3675 67.2074 76.1278 67.4548 75.7086C67.822 75.0831 67.5861 74.2628 66.9614 73.895Z" fill="white"></path>
<path d="M71.916 58.6307V56.346C74.0189 54.4595 75.3748 51.548 75.3748 48.2792C75.3748 42.605 71.3022 37.9888 66.2963 37.9888C65.9682 37.9888 65.6494 38.0294 65.3303 38.0681C66.8894 34.7017 67.7081 31.0267 67.7081 27.2685C67.708 13.0943 56.1743 1.5625 41.9976 1.5625C27.8209 1.5625 16.2879 13.0943 16.2879 27.2683C16.2879 31.0162 17.1038 34.6836 18.659 38.0468C18.345 38.0094 18.0267 37.9888 17.7043 37.9888C12.6959 37.9888 8.62123 42.605 8.62123 48.2792C8.62123 51.5638 9.99147 54.4868 12.1129 56.3724C12.1074 56.4208 12.0844 56.4632 12.0844 56.5131V58.6305C6.05187 59.7494 1.48438 65.1199 1.48438 71.3531V79.5089C1.48438 80.2343 2.07211 80.8214 2.79688 80.8214H23.2675V81.625C23.2675 82.3504 23.8553 82.9375 24.58 82.9375H59.4158C60.1405 82.9375 60.7283 82.3504 60.7283 81.625V80.8214H81.2034C81.9282 80.8214 82.5159 80.2343 82.5159 79.5089V71.3531C82.5159 65.1201 77.9485 59.7496 71.916 58.6307ZM72.264 61.4063L70.0471 64.4971L68.4123 63.232L70.9877 61.1503C71.422 61.2108 71.8488 61.2928 72.264 61.4063ZM32.6049 65.7184C31.2313 62.9017 28.893 60.7062 26.0699 59.4878C26.0587 59.4851 26.0487 59.4775 26.0376 59.475C25.17 59.1034 24.2675 58.8034 23.3241 58.6293V56.3457C25.4266 54.4593 26.7823 51.5479 26.7823 48.2792C26.7823 48.1671 26.7706 48.0583 26.7675 47.947C28.3352 49.1054 30.0204 50.0863 31.8189 50.8694L31.8509 54.7341C31.8509 58.328 33.4115 60.9702 35.655 62.6204V64.8291C34.5936 65.0118 33.577 65.3211 32.6049 65.7184ZM22.3832 61.1605C22.8185 61.2204 23.2465 61.3013 23.6651 61.4151L21.4546 64.4973L19.8204 63.2322L22.3832 61.1605ZM39.836 46.3387C39.5842 46.0426 39.2176 45.876 38.8363 45.876C38.7651 45.876 38.6927 45.8825 38.6209 45.894C38.1659 45.9696 37.7839 46.2786 37.6147 46.7079C36.722 48.9779 35.5595 49.6201 34.4264 49.802V48.7869C34.4264 44.6033 36.24 42.1295 39.5328 41.8207C40.5249 41.7284 41.558 41.7707 42.6487 41.8169C45.0609 41.9149 47.7853 42.0303 50.9018 40.6871C51.376 41.1197 52.2483 42.6154 52.4251 44.5932C52.5636 46.1364 52.3066 48.2693 50.3821 49.8739C45.8204 49.87 42.7481 49.7622 39.836 46.3387ZM49.5202 52.4939V54.7341C49.5202 59.7406 45.6211 62.0208 41.9977 62.0208C38.3748 62.0208 34.4758 59.7406 34.4758 54.7341V52.4456C35.9027 52.294 37.7494 51.7062 39.1836 49.4252C42.2821 52.1859 45.6967 52.4653 49.5202 52.4939ZM36.5819 67.3576L39.8822 70.0279L37.5693 71.8172L34.6607 67.7621C35.2814 67.5747 35.9242 67.4436 36.5819 67.3576ZM38.2799 65.3551V64.0102C39.469 64.4322 40.7352 64.6458 41.9976 64.6458C43.2619 64.6458 44.5298 64.4315 45.7204 64.0084V65.3553L41.9982 68.3634L38.2799 65.3551ZM47.4175 67.3575C48.0741 67.4433 48.7161 67.5742 49.3359 67.7612L46.4266 71.8172L44.1137 70.0279L47.4175 67.3575ZM48.3455 64.8291V62.6167C50.5866 60.9663 52.1452 58.3255 52.1452 54.7341V51.8033C52.7227 51.3098 53.1907 50.7736 53.5812 50.214C54.8598 49.5692 56.0756 48.8164 57.2276 47.972C57.2248 48.0749 57.2139 48.1754 57.2139 48.2792C57.2139 51.5493 58.5717 54.4619 60.6769 56.3482C60.6768 56.4036 60.6764 56.4606 60.6764 56.5131V58.6292C59.7334 58.8032 58.8312 59.1032 57.9636 59.4747C57.9497 59.4779 57.9375 59.4872 57.9236 59.4907C55.1037 60.7098 52.7569 62.9015 51.3801 65.7122C50.4127 65.3181 49.4013 65.011 48.3455 64.8291ZM61.6172 61.1605L64.18 63.2322L62.5458 64.4973L60.3354 61.4153C60.754 61.3013 61.182 61.2204 61.6172 61.1605ZM63.3014 59.1478V57.9835C64.2406 58.3569 65.2458 58.5703 66.2962 58.5703C67.3465 58.5703 68.3517 58.3566 69.2909 57.9829V59.1478L66.2962 61.5683L63.3014 59.1478ZM66.2962 55.9454C63.3005 55.9454 60.7822 53.5078 60.0561 50.2179C61.4634 50.0424 63.2347 49.4258 64.621 47.2181C67.1608 49.4727 69.8776 50.0461 72.5339 50.2116C71.8101 53.5046 69.2922 55.9454 66.2962 55.9454ZM66.2962 40.6138C69.6601 40.6138 72.4272 43.6871 72.7204 47.5937C69.6191 47.3913 67.4027 46.6353 65.27 44.1316C64.9714 43.7817 64.5119 43.6163 64.0543 43.6881C63.5992 43.7637 63.2179 44.0739 63.0494 44.5033C62.1603 46.768 61.0001 47.4054 59.8682 47.5885C60.1639 43.6843 62.932 40.6138 66.2962 40.6138ZM61.5639 39.5163C60.1057 40.5347 58.9149 41.9997 58.153 43.7507C57.1789 44.7038 56.1289 45.5614 55.0143 46.3233C55.1497 45.0706 55.0299 43.8309 54.7539 42.7153C59.0552 39.1656 61.6315 34.1183 61.9896 28.5807H65.0365C64.8174 32.4686 63.6309 36.2202 61.5639 39.5163ZM43.3101 4.25404C54.9909 4.91554 64.3547 14.2776 65.0165 25.956H61.9954C61.3423 15.9433 53.3251 7.92786 43.3101 7.27516V4.25404ZM41.9976 16.746C42.7223 16.746 43.3101 16.1583 43.3101 15.4335V9.90002C51.8786 10.5426 58.7274 17.3897 59.3705 25.9558H53.8371C53.1124 25.9558 52.5246 26.5436 52.5246 27.2683C52.5246 27.9931 53.1124 28.5808 53.8371 28.5808H59.3688C59.0376 33.0429 57.0481 37.1316 53.7403 40.1399C53.7321 40.126 53.7248 40.1098 53.7166 40.0961C52.1767 37.4768 50.5745 37.9543 50.1195 38.1626C47.4458 39.388 45.1681 39.2924 42.7584 39.1937C41.6292 39.1475 40.4622 39.0982 39.2887 39.2072C36.7581 39.4445 34.8023 40.6224 33.5158 42.5071C28.4232 39.6615 25.0616 34.3931 24.6176 28.581H30.1634C30.8882 28.581 31.4759 27.9932 31.4759 27.2685C31.4759 26.5437 30.8882 25.956 30.1634 25.956H24.6301C25.2728 17.3899 32.1197 10.543 40.6851 9.90002V15.4334C40.6851 16.1583 41.2728 16.746 41.9976 16.746ZM40.6851 4.25404V7.27516C30.6725 7.92799 22.6576 15.9434 22.0049 25.956H18.9793C19.6411 14.2775 29.0049 4.91541 40.6851 4.25404ZM21.9837 28.5808C22.4358 35.3935 26.3788 41.5776 32.3672 44.8661C32.0709 45.8075 31.8897 46.8503 31.8294 47.9831C29.625 46.8987 27.6134 45.4856 25.8403 43.7435C25.0783 41.9945 23.8936 40.5285 22.4344 39.5129C20.3663 36.2141 19.1794 32.4632 18.9589 28.5808H21.9837ZM17.7043 40.6138C21.0677 40.6138 23.8347 43.6872 24.1279 47.5938C21.0272 47.3918 18.8108 46.6361 16.6775 44.1316C16.3789 43.7817 15.9212 43.6163 15.4617 43.6881C15.0067 43.7637 14.6254 44.0739 14.4569 44.5033C13.5678 46.768 12.4075 47.4054 11.2756 47.5885C11.5712 43.6843 14.3399 40.6138 17.7043 40.6138ZM11.4634 50.2179C12.8706 50.0424 14.6421 49.4258 16.0283 47.2181C18.5687 49.4737 21.2854 50.0466 23.9412 50.2119C23.2174 53.5048 20.6995 55.9454 17.7041 55.9454C14.7086 55.9454 12.1898 53.5077 11.4634 50.2179ZM17.7043 58.5704C18.7548 58.5704 19.7598 58.3567 20.699 57.9829V59.1478L17.7043 61.5683L14.7095 59.1478V57.9836C15.6487 58.357 16.6537 58.5704 17.7043 58.5704ZM13.0126 61.1503L15.588 63.232L13.9531 64.4971L11.7363 61.4063C12.1516 61.2927 12.5784 61.2108 13.0126 61.1503ZM4.10951 71.3531C4.10951 67.6088 6.18208 64.2631 9.25897 62.4561L12.6132 67.1324C12.8208 67.422 13.1374 67.6143 13.4899 67.6656C13.5528 67.6746 13.6162 67.6797 13.6796 67.6797C13.9686 67.6797 14.2512 67.5848 14.4826 67.4054L17.7041 64.9144L20.9253 67.4054C21.1566 67.5848 21.4392 67.6797 21.7282 67.6797C21.7911 67.6797 21.8552 67.6746 21.9179 67.6656C22.2704 67.6143 22.587 67.4222 22.7947 67.1324L26.1552 62.4473C27.9227 63.4794 29.3595 65.0359 30.267 66.9259C26.4211 69.3655 23.7505 73.5008 23.3279 78.1964H10.8552V73.9038C10.8552 73.1784 10.2675 72.5913 9.54273 72.5913C8.81797 72.5913 8.23023 73.1784 8.23023 73.9038V78.1964H4.10951V71.3531ZM58.1033 80.3125H25.8925V79.5089C25.8925 74.9836 28.4368 70.9495 32.1927 68.8254L36.2291 74.4538C36.4368 74.7434 36.7533 74.9357 37.1059 74.987C37.1693 74.996 37.2328 75.0011 37.2955 75.0011C37.5846 75.0011 37.8671 74.9062 38.0985 74.7268L41.9977 71.7104L45.8973 74.7268C46.1287 74.9062 46.4113 75.0011 46.7003 75.0011C46.7631 75.0011 46.8265 74.996 46.8899 74.987C47.2425 74.9357 47.559 74.7436 47.7667 74.4538L51.8038 68.8243C55.5591 70.9483 58.1033 74.983 58.1033 79.5089V80.3125ZM79.8909 78.1964H75.7656V73.9038C75.7656 73.1784 75.1778 72.5913 74.4531 72.5913C73.7283 72.5913 73.1406 73.1784 73.1406 73.9038V78.1964H60.668C60.245 73.4945 57.5689 69.3544 53.7162 66.9161C54.6267 65.0277 56.0779 63.479 57.8452 62.4473L61.2058 67.1324C61.4134 67.422 61.73 67.6143 62.0825 67.6656C62.1459 67.6746 62.2088 67.6797 62.2722 67.6797C62.5612 67.6797 62.8438 67.5848 63.0751 67.4054L66.2963 64.9144L69.5178 67.4054C69.7492 67.5848 70.0318 67.6797 70.3208 67.6797C70.3842 67.6797 70.4477 67.6746 70.5105 67.6656C70.863 67.6143 71.1796 67.4222 71.3872 67.1324L74.7413 62.4562C77.8183 64.2636 79.8909 67.6097 79.8909 71.3531V78.1964Z" fill="white"></path>
</svg>
