<svg width="265" height="265" viewBox="0 0 265 265" fill="none" xmlns="http://www.w3.org/2000/svg">
<circle cx="132.5" cy="132.5" r="132.5" fill="url('#paint0_linear_1_96')"></circle>
<circle cx="132.998" cy="132.998" r="71.2274" stroke="white" stroke-width="2"></circle>
<path d="M131.045 40.2795C129.863 40.2795 128.797 40.0787 127.847 39.6771C126.905 39.2755 126.125 38.704 125.507 37.9625C124.897 37.2134 124.499 36.3291 124.314 35.3096L126.445 34.9736C126.716 36.024 127.276 36.8465 128.125 37.4412C128.982 38.0282 129.99 38.3217 131.149 38.3217C131.898 38.3217 132.574 38.2058 133.176 37.9741C133.786 37.7347 134.269 37.3949 134.624 36.9547C134.98 36.5144 135.157 35.9931 135.157 35.3907C135.157 35.02 135.092 34.7033 134.96 34.4407C134.837 34.1704 134.663 33.9426 134.439 33.7572C134.223 33.5641 133.976 33.402 133.698 33.2707C133.42 33.1394 133.13 33.0312 132.829 32.9463L128.577 31.6835C128.114 31.5445 127.666 31.3707 127.233 31.1622C126.801 30.946 126.414 30.6795 126.075 30.3628C125.735 30.0385 125.465 29.6523 125.264 29.2044C125.063 28.7487 124.963 28.2119 124.963 27.5941C124.963 26.6055 125.217 25.7636 125.727 25.0685C126.245 24.3657 126.944 23.829 127.824 23.4582C128.704 23.0875 129.697 22.906 130.801 22.9137C131.921 22.9215 132.921 23.1223 133.802 23.5162C134.69 23.9023 135.424 24.4584 136.003 25.1844C136.59 25.9104 136.984 26.7792 137.185 27.791L134.995 28.1733C134.879 27.4937 134.62 26.9105 134.219 26.424C133.825 25.9297 133.331 25.5512 132.736 25.2887C132.141 25.0183 131.489 24.8793 130.778 24.8716C130.098 24.8639 129.485 24.972 128.936 25.196C128.388 25.42 127.951 25.7327 127.627 26.1344C127.303 26.5282 127.14 26.9839 127.14 27.5014C127.14 28.0111 127.287 28.4243 127.581 28.741C127.874 29.0499 128.233 29.297 128.658 29.4824C129.091 29.66 129.512 29.8068 129.921 29.9226L133.095 30.8378C133.458 30.9382 133.875 31.0773 134.346 31.2549C134.825 31.4325 135.289 31.6835 135.736 32.0079C136.184 32.3246 136.555 32.7493 136.849 33.2822C137.142 33.8074 137.289 34.4716 137.289 35.2749C137.289 36.0781 137.127 36.7925 136.802 37.4181C136.486 38.0436 136.042 38.5688 135.47 38.9936C134.899 39.4107 134.234 39.7273 133.477 39.9436C132.721 40.1675 131.91 40.2795 131.045 40.2795Z" fill="white"></path>
<path d="M149.421 42.1048C148.217 41.8653 147.217 41.3907 146.421 40.6812C145.634 39.9656 145.085 39.0808 144.775 38.0269C144.467 36.9655 144.44 35.7947 144.694 34.5145C144.961 33.1738 145.438 32.0638 146.124 31.1846C146.813 30.2978 147.649 29.6766 148.633 29.3212C149.626 28.9596 150.718 28.8972 151.907 29.1337C153.141 29.3793 154.134 29.8721 154.885 30.6119C155.643 31.3533 156.133 32.2934 156.355 33.4322C156.585 34.5725 156.525 35.8638 156.175 37.3061L154.13 36.8993L154.275 36.1721C154.552 34.6602 154.469 33.4743 154.026 32.6145C153.584 31.747 152.78 31.1973 151.613 30.9652C150.363 30.7166 149.333 30.929 148.522 31.6024C147.711 32.2757 147.156 33.3623 146.858 34.8621C146.57 36.3089 146.673 37.4948 147.166 38.4198C147.659 39.3447 148.508 39.927 149.712 40.1665C150.523 40.3277 151.264 40.2823 151.936 40.0301C152.609 39.778 153.184 39.3374 153.664 38.7083L155.474 39.7652C154.781 40.7535 153.894 41.4511 152.813 41.8582C151.741 42.2592 150.61 42.3414 149.421 42.1048ZM146.063 35.2947L146.386 33.6698L155.453 35.4734L155.13 37.0982L146.063 35.2947Z" fill="white"></path>
<path d="M166.851 47.4329C165.717 46.963 164.828 46.3024 164.186 45.4513C163.554 44.5959 163.189 43.6211 163.09 42.527C162.995 41.4258 163.196 40.2722 163.696 39.0663C164.219 37.8033 164.903 36.8077 165.748 36.0793C166.596 35.3439 167.538 34.8978 168.572 34.7412C169.617 34.5804 170.699 34.732 171.82 35.196C172.983 35.6777 173.86 36.3547 174.452 37.2268C175.051 38.1018 175.348 39.1195 175.344 40.2797C175.347 41.443 175.036 42.6978 174.412 44.0441L172.485 43.2461L172.769 42.5611C173.336 41.1323 173.486 39.953 173.219 39.0232C172.955 38.0863 172.273 37.3902 171.174 36.9351C169.997 36.4474 168.945 36.4547 168.018 36.9568C167.091 37.459 166.335 38.4165 165.75 39.8293C165.185 41.1922 165.055 42.3753 165.358 43.3787C165.661 44.3821 166.38 45.1187 167.515 45.5887C168.278 45.9049 169.014 46.005 169.723 45.8888C170.431 45.7727 171.082 45.4529 171.675 44.9294L173.244 46.319C172.372 47.1532 171.366 47.6644 170.226 47.8527C169.096 48.0369 167.971 47.897 166.851 47.4329ZM164.886 40.0984L165.52 38.5679L174.061 42.1057L173.427 43.6363L164.886 40.0984Z" fill="white"></path>
<path d="M191.773 61.9618L203.569 50.1657L204.896 51.4927L199.956 65.345L213.784 60.3808L215.127 61.7242L203.339 73.5122L201.955 72.1278L210.54 63.5428L197.941 68.1302L197.163 67.352L201.75 54.753L193.157 63.3462L191.773 61.9618Z" fill="white"></path>
<path d="M208.389 81.5945C207.698 80.5606 207.336 79.5114 207.303 78.4468C207.274 77.3887 207.539 76.3806 208.097 75.4225C208.655 74.4644 209.47 73.6271 210.543 72.9105C211.634 72.1811 212.728 71.7472 213.825 71.609C214.922 71.4708 215.949 71.625 216.907 72.0717C217.871 72.5141 218.692 73.2426 219.37 74.2572C220.065 75.2975 220.43 76.35 220.463 77.4145C220.503 78.4748 220.241 79.4808 219.679 80.4324C219.127 81.3862 218.315 82.2214 217.243 82.938C216.157 83.6631 215.065 84.1002 213.967 84.2491C212.874 84.3938 211.843 84.247 210.872 83.8089C209.908 83.3665 209.08 82.6284 208.389 81.5945ZM210.017 80.5068C210.738 81.5856 211.634 82.1481 212.705 82.1941C213.776 82.2401 214.883 81.8812 216.026 81.1174C217.201 80.3322 217.958 79.4414 218.295 78.445C218.639 77.4443 218.455 76.4109 217.742 75.3449C217.258 74.6193 216.695 74.1315 216.054 73.8815C215.413 73.6316 214.727 73.5841 213.994 73.7391C213.262 73.8941 212.517 74.2248 211.759 74.7311C210.59 75.512 209.833 76.4082 209.487 77.4196C209.141 78.431 209.318 79.4601 210.017 80.5068Z" fill="white"></path>
<path d="M216.273 95.0469L227.832 90.2589L228.537 91.9607L225.743 93.1178L225.992 92.6888C226.405 92.6765 226.806 92.7154 227.194 92.8053C227.585 92.9024 227.933 93.0466 228.238 93.2379C228.605 93.4371 228.931 93.6992 229.216 94.0242C229.501 94.3492 229.736 94.7034 229.92 95.087C230.111 95.4677 230.238 95.8455 230.301 96.2205L228.514 96.9608C228.455 96.5169 228.302 96.0663 228.054 95.6089C227.806 95.1515 227.448 94.7815 226.98 94.499C226.562 94.2373 226.122 94.0813 225.658 94.031C225.197 93.9879 224.729 94.0187 224.254 94.1234C223.786 94.2252 223.324 94.3707 222.867 94.5599L217.066 96.9627L216.273 95.0469Z" fill="white"></path>
<path d="M222.314 115.311C222.075 114.106 222.13 113.001 222.481 111.994C222.841 110.993 223.449 110.148 224.304 109.458C225.167 108.767 226.238 108.294 227.518 108.039C228.859 107.772 230.067 107.788 231.142 108.086C232.224 108.382 233.118 108.917 233.823 109.691C234.537 110.47 235.013 111.454 235.249 112.643C235.495 113.878 235.42 114.984 235.023 115.96C234.628 116.944 233.947 117.757 232.98 118.398C232.015 119.047 230.799 119.486 229.333 119.714L228.926 117.669L229.653 117.525C231.156 117.202 232.22 116.671 232.844 115.933C233.477 115.193 233.677 114.24 233.445 113.073C233.196 111.823 232.606 110.952 231.673 110.461C230.741 109.969 229.525 109.872 228.025 110.171C226.578 110.458 225.522 111.007 224.856 111.817C224.19 112.626 223.977 113.634 224.217 114.838C224.378 115.648 224.703 116.316 225.194 116.841C225.684 117.365 226.311 117.729 227.076 117.931L226.792 120.007C225.614 119.745 224.63 119.193 223.84 118.35C223.06 117.513 222.551 116.5 222.314 115.311ZM227.321 109.602L228.946 109.279L230.749 118.346L229.125 118.669L227.321 109.602Z" fill="white"></path>
<path d="M231.528 151.91L232.903 150.636L234.768 152.838L236.106 150.269L237.743 151.185L236.226 153.647L239.098 154.112L238.732 155.953L235.9 155.284L236.36 158.139L234.497 158.359L234.244 155.474L231.68 156.783L230.897 155.08L233.552 153.966L231.528 151.91Z" fill="white"></path>
<path d="M208.257 185.111C208.914 184.129 209.673 183.354 210.534 182.787C211.392 182.227 212.3 181.896 213.26 181.794C214.222 181.703 215.178 181.864 216.129 182.276L215.224 184.235C214.2 183.876 213.205 183.885 212.239 184.261C211.275 184.648 210.471 185.322 209.827 186.286C209.411 186.909 209.132 187.535 208.99 188.165C208.85 188.805 208.864 189.395 209.033 189.935C209.201 190.475 209.536 190.912 210.037 191.247C210.345 191.453 210.645 191.574 210.936 191.611C211.23 191.658 211.516 191.641 211.794 191.557C212.075 191.485 212.347 191.369 212.611 191.211C212.874 191.053 213.125 190.872 213.363 190.669L216.775 187.835C217.148 187.527 217.542 187.251 217.955 187.008C218.375 186.768 218.812 186.595 219.264 186.488C219.722 186.386 220.193 186.376 220.677 186.458C221.168 186.544 221.67 186.759 222.184 187.102C223.006 187.651 223.564 188.331 223.859 189.141C224.156 189.962 224.214 190.841 224.033 191.779C223.852 192.717 223.451 193.643 222.831 194.557C222.203 195.484 221.48 196.204 220.663 196.717C219.849 197.241 218.979 197.542 218.054 197.62C217.124 197.705 216.183 197.55 215.23 197.155L216.128 195.122C216.758 195.403 217.386 195.512 218.014 195.448C218.644 195.395 219.233 195.195 219.782 194.846C220.337 194.502 220.815 194.036 221.216 193.45C221.6 192.889 221.852 192.319 221.97 191.738C222.088 191.158 222.071 190.621 221.917 190.128C221.77 189.64 221.481 189.252 221.051 188.964C220.627 188.681 220.202 188.574 219.775 188.642C219.356 188.714 218.951 188.875 218.56 189.126C218.172 189.387 217.817 189.655 217.493 189.931L214.968 192.062C214.683 192.308 214.336 192.577 213.926 192.87C213.513 193.17 213.047 193.416 212.528 193.608C212.016 193.804 211.457 193.877 210.851 193.825C210.251 193.777 209.617 193.53 208.949 193.084C208.281 192.637 207.777 192.106 207.438 191.488C207.093 190.878 206.903 190.217 206.868 189.505C206.838 188.798 206.944 188.07 207.185 187.321C207.419 186.567 207.776 185.831 208.257 185.111Z" fill="white"></path>
<path d="M196.69 199.138C197.558 198.269 198.508 197.701 199.54 197.434C200.573 197.177 201.613 197.213 202.662 197.54C203.716 197.873 204.704 198.501 205.627 199.424C206.594 200.391 207.252 201.404 207.601 202.464C207.956 203.528 208.008 204.569 207.757 205.585C207.506 206.611 206.951 207.553 206.094 208.411C205.204 209.301 204.243 209.853 203.21 210.065C202.173 210.284 201.119 210.169 200.048 209.721C198.972 209.279 197.932 208.512 196.927 207.42L198.402 205.945L198.926 206.469C200.029 207.54 201.061 208.13 202.023 208.239C202.989 208.353 203.893 207.99 204.734 207.149C205.635 206.248 206.031 205.273 205.922 204.225C205.813 203.176 205.217 202.111 204.136 201.03C203.093 199.987 202.05 199.413 201.007 199.31C199.964 199.206 199.008 199.588 198.14 200.457C197.555 201.041 197.181 201.683 197.017 202.382C196.854 203.081 196.9 203.804 197.157 204.552L195.273 205.47C194.836 204.345 194.748 203.22 195.01 202.095C195.273 200.981 195.832 199.995 196.69 199.138ZM204.218 200.129L205.389 201.3L198.852 207.837L197.681 206.666L204.218 200.129Z" fill="white"></path>
<path d="M182.576 210.67C183.597 209.988 184.64 209.616 185.704 209.555C186.767 209.505 187.78 209.743 188.745 210.268C189.713 210.801 190.56 211.61 191.285 212.695C192.045 213.832 192.493 214.953 192.629 216.061C192.769 217.174 192.617 218.205 192.173 219.152C191.726 220.11 190.998 220.926 189.99 221.6C188.944 222.299 187.893 222.653 186.839 222.66C185.779 222.672 184.768 222.354 183.805 221.706C182.836 221.062 181.966 220.106 181.193 218.839L182.927 217.681L183.339 218.297C184.212 219.562 185.109 220.342 186.031 220.637C186.956 220.938 187.914 220.758 188.903 220.097C189.962 219.389 190.541 218.51 190.638 217.461C190.736 216.411 190.36 215.25 189.51 213.979C188.69 212.752 187.779 211.986 186.776 211.681C185.774 211.376 184.762 211.564 183.741 212.247C183.054 212.706 182.561 213.262 182.264 213.916C181.967 214.569 181.872 215.288 181.977 216.072L179.951 216.604C179.742 215.416 179.875 214.295 180.352 213.243C180.826 212.201 181.568 211.344 182.576 210.67ZM189.766 213.111L190.686 214.488L183 219.625L182.079 218.247L189.766 213.111Z" fill="white"></path>
<path d="M156.65 223.32L159.905 239.681L158.064 240.047L149.29 228.244L145.736 242.5L143.872 242.87L140.62 226.52L142.54 226.138L144.909 238.046L148.094 225.021L149.174 224.807L157.101 235.621L154.73 223.702L156.65 223.32Z" fill="white"></path>
<path d="M131.224 225.715C132.467 225.715 133.541 225.997 134.445 226.561C135.34 227.125 136.032 227.905 136.518 228.901C137.005 229.897 137.248 231.041 137.248 232.33C137.248 233.643 137.001 234.794 136.507 235.783C136.012 236.771 135.313 237.54 134.41 238.088C133.506 238.644 132.444 238.922 131.224 238.922C129.973 238.922 128.895 238.64 127.992 238.076C127.088 237.52 126.397 236.744 125.918 235.748C125.431 234.759 125.188 233.62 125.188 232.33C125.188 231.025 125.431 229.874 125.918 228.878C126.405 227.889 127.1 227.113 128.003 226.549C128.907 225.993 129.98 225.715 131.224 225.715ZM131.224 227.673C129.926 227.673 128.961 228.106 128.328 228.971C127.694 229.836 127.378 230.956 127.378 232.33C127.378 233.744 127.698 234.867 128.339 235.702C128.98 236.543 129.942 236.964 131.224 236.964C132.097 236.964 132.815 236.767 133.379 236.373C133.942 235.98 134.363 235.435 134.641 234.74C134.919 234.045 135.059 233.242 135.059 232.33C135.059 230.925 134.734 229.797 134.085 228.948C133.437 228.098 132.483 227.673 131.224 227.673Z" fill="white"></path>
<path d="M115.529 225.31L113.088 237.581L111.282 237.222L111.872 234.256L112.09 234.701C111.871 235.051 111.616 235.363 111.326 235.636C111.027 235.907 110.714 236.116 110.386 236.264C110.016 236.458 109.617 236.583 109.189 236.64C108.76 236.696 108.335 236.694 107.914 236.634C107.491 236.582 107.107 236.478 106.76 236.322L107.137 234.425C107.539 234.623 107.998 234.745 108.516 234.793C109.035 234.841 109.541 234.749 110.036 234.517C110.486 234.315 110.86 234.035 111.16 233.677C111.452 233.318 111.686 232.912 111.863 232.459C112.038 232.013 112.174 231.548 112.27 231.063L113.495 224.905L115.529 225.31Z" fill="white"></path>
<path d="M95.3239 219.075C96.4584 219.545 97.3467 220.206 97.989 221.057C98.6211 221.912 98.9864 222.887 99.085 223.981C99.1805 225.082 98.9786 226.236 98.4791 227.442C97.956 228.705 97.2719 229.7 96.4268 230.429C95.5788 231.164 94.6375 231.61 93.6029 231.767C92.5582 231.928 91.4757 231.776 90.3555 231.312C89.1924 230.83 88.315 230.153 87.7232 229.281C87.1243 228.406 86.8269 227.389 86.831 226.228C86.828 225.065 87.1388 223.81 87.7633 222.464L89.6899 223.262L89.4061 223.947C88.8394 225.376 88.6894 226.555 88.9564 227.485C89.2203 228.422 89.9017 229.118 91.0006 229.573C92.1779 230.061 93.23 230.053 94.157 229.551C95.0839 229.049 95.84 228.092 96.4252 226.679C96.9897 225.316 97.1203 224.133 96.817 223.129C96.5137 222.126 95.7948 221.389 94.6602 220.919C93.8968 220.603 93.1608 220.503 92.4522 220.619C91.7437 220.735 91.093 221.055 90.5 221.579L88.9313 220.189C89.8035 219.355 90.8094 218.844 91.9491 218.655C93.0787 218.471 94.2036 218.611 95.3239 219.075ZM97.289 226.41L96.6551 227.94L88.114 224.402L88.748 222.872L97.289 226.41Z" fill="white"></path>
<path d="M59.7743 206.402L60.0692 208.254L57.2021 208.581L58.5947 211.121L56.9236 211.973L55.7194 209.343L53.737 211.473L52.4099 210.146L54.5398 208.164L51.9102 206.959L52.7622 205.288L55.3016 206.681L55.6375 203.822L57.4888 204.117L56.94 206.943L59.7743 206.402Z" fill="white"></path>
<path d="M45.0967 168.608C45.5489 169.7 45.7712 170.761 45.7637 171.792C45.7533 172.817 45.5238 173.756 45.0752 174.611C44.6166 175.461 43.9518 176.167 43.0808 176.728L41.9547 174.887C42.8217 174.236 43.3673 173.404 43.5916 172.391C43.8059 171.374 43.6913 170.331 43.248 169.261C42.9613 168.569 42.5956 167.989 42.151 167.521C41.6963 167.049 41.1977 166.733 40.655 166.573C40.1123 166.413 39.5627 166.449 39.0061 166.679C38.6637 166.821 38.3962 167.003 38.2039 167.225C38.0014 167.442 37.8574 167.69 37.7719 167.968C37.6763 168.241 37.621 168.532 37.6061 168.839C37.5912 169.146 37.6021 169.455 37.6389 169.766L38.0993 174.177C38.1482 174.658 38.1591 175.139 38.1319 175.618C38.0977 176.1 37.9993 176.559 37.8368 176.994C37.6671 177.432 37.4138 177.83 37.0768 178.187C36.7327 178.547 36.2752 178.845 35.7043 179.081C34.791 179.46 33.9157 179.546 33.0785 179.341C32.2311 179.132 31.4677 178.692 30.7883 178.02C30.1089 177.349 29.5614 176.501 29.1459 175.478C28.7245 174.441 28.5272 173.44 28.5542 172.476C28.5711 171.507 28.8041 170.617 29.2531 169.804C29.6992 168.983 30.3512 168.287 31.2091 167.714L32.4002 169.591C31.8166 169.958 31.3769 170.42 31.0811 170.977C30.7752 171.531 30.6147 172.132 30.5996 172.782C30.5775 173.435 30.6988 174.091 30.9636 174.75C31.2165 175.381 31.5514 175.907 31.9682 176.328C32.3849 176.749 32.8409 177.032 33.3361 177.178C33.8241 177.327 34.3072 177.303 34.7852 177.105C35.2562 176.91 35.5818 176.616 35.762 176.224C35.9351 175.834 36.026 175.408 36.0347 174.945C36.0333 174.477 36.0078 174.032 35.9582 173.609L35.589 170.327C35.5428 169.953 35.5117 169.514 35.4955 169.011C35.4764 168.501 35.5309 167.976 35.6592 167.438C35.7803 166.903 36.0309 166.398 36.4109 165.923C36.7838 165.451 37.3413 165.061 38.0834 164.754C38.8255 164.447 39.5476 164.323 40.2496 164.383C40.9488 164.437 41.6039 164.646 42.2151 165.011C42.8191 165.38 43.3659 165.872 43.8553 166.489C44.3519 167.102 44.7657 167.809 45.0967 168.608Z" fill="white"></path>
<path d="M39.8607 151.197C40.1003 152.402 40.0446 153.507 39.6937 154.514C39.3336 155.515 38.7261 156.36 37.8711 157.05C37.0086 157.741 35.9372 158.214 34.6571 158.469C33.3163 158.736 32.1084 158.72 31.0333 158.422C29.9506 158.126 29.0568 157.591 28.3518 156.817C27.6376 156.038 27.1623 155.054 26.9258 153.865C26.6802 152.63 26.7555 151.524 27.1519 150.548C27.5467 149.564 28.2277 148.751 29.1947 148.11C30.1602 147.461 31.3762 147.022 32.8426 146.794L33.2494 148.839L32.5222 148.983C31.0194 149.306 29.9555 149.837 29.3307 150.575C28.6983 151.315 28.4981 152.268 28.7302 153.435C28.9788 154.685 29.5693 155.556 30.5019 156.047C31.4344 156.539 32.6505 156.636 34.1504 156.337C35.5972 156.05 36.6535 155.501 37.3192 154.691C37.985 153.882 38.1981 152.875 37.9586 151.67C37.7973 150.86 37.4716 150.192 36.9814 149.667C36.4912 149.143 35.8638 148.779 35.0991 148.577L35.383 146.501C36.5611 146.763 37.5451 147.315 38.3348 148.158C39.1155 148.995 39.6242 150.008 39.8607 151.197ZM34.8541 156.906L33.2293 157.229L31.4257 148.162L33.0505 147.839L34.8541 156.906Z" fill="white"></path>
<path d="M38.113 133.185C38.113 134.413 37.8427 135.486 37.3021 136.405C36.7538 137.317 35.993 138.027 35.0199 138.537C34.039 139.047 32.896 139.301 31.5907 139.301C30.2237 139.301 29.0421 139.05 28.0458 138.548C27.0417 138.046 26.2694 137.347 25.7288 136.452C25.1804 135.548 24.9062 134.49 24.9062 133.277C24.9062 132.018 25.1959 130.949 25.7751 130.068C26.3544 129.18 27.1808 128.516 28.2543 128.076C29.3278 127.628 30.606 127.435 32.0889 127.496V129.582H31.3475C29.8105 129.605 28.6636 129.918 27.9067 130.52C27.1421 131.122 26.7598 132.018 26.7598 133.208C26.7598 134.482 27.1692 135.451 27.9878 136.116C28.8065 136.78 29.9804 137.112 31.5096 137.112C32.9848 137.112 34.1278 136.78 34.9388 136.116C35.7497 135.451 36.1552 134.505 36.1552 133.277C36.1552 132.451 35.966 131.733 35.5875 131.122C35.2091 130.512 34.6646 130.033 33.9541 129.686L34.6376 127.705C35.742 128.191 36.5993 128.925 37.2094 129.906C37.8118 130.879 38.113 131.972 38.113 133.185ZM32.0889 137.807H30.4323V128.562H32.0889V137.807Z" fill="white"></path>
<path d="M41.9989 104.471L26.5865 98.0866L27.3047 96.3527L41.9929 95.6153L32.1149 84.7399L32.842 82.9846L48.2437 89.3642L47.4944 91.173L36.2776 86.5269L45.3372 96.4112L44.9161 97.428L31.5206 98.0112L42.7482 102.662L41.9989 104.471Z" fill="white"></path>
<path d="M53.7783 81.6058C53.0875 82.6397 52.2567 83.3757 51.2859 83.8138C50.3193 84.2455 49.2867 84.3868 48.188 84.2379C47.0893 84.0889 46.0037 83.6562 44.9313 82.9396C43.8396 82.2102 43.0201 81.3653 42.4727 80.4051C41.9254 79.4449 41.6747 78.4368 41.7208 77.3808C41.7605 76.3206 42.1193 75.2831 42.7972 74.2685C43.4924 73.2282 44.3253 72.489 45.2961 72.0509C46.2605 71.6085 47.2899 71.465 48.3843 71.6203C49.4766 71.765 50.559 72.1956 51.6314 72.9122C52.7167 73.6373 53.5383 74.4789 54.0964 75.437C54.6481 76.3908 54.9073 77.4 54.874 78.4646C54.8344 79.5248 54.4691 80.5719 53.7783 81.6058ZM52.1504 80.5181C52.8713 79.4392 53.048 78.3962 52.6806 77.3891C52.3132 76.3819 51.558 75.4965 50.415 74.7327C49.2398 73.9475 48.1274 73.5897 47.0777 73.6593C46.0216 73.7246 45.1374 74.2902 44.4251 75.3562C43.9403 76.0819 43.705 76.7885 43.7193 77.4761C43.7335 78.1637 43.9524 78.8162 44.3759 79.4336C44.7994 80.0509 45.39 80.6128 46.1477 81.1191C47.3165 81.9 48.4343 82.2567 49.5011 82.1893C50.5679 82.1219 51.451 81.5648 52.1504 80.5181Z" fill="white"></path>
<path d="M63.1898 69.1745L54.3427 60.3273L55.6452 59.0249L57.7833 61.1629L57.2918 61.0974C57.1225 60.7206 57.0051 60.3355 56.9395 59.9423C56.8795 59.5437 56.8795 59.1668 56.9395 58.8119C56.9832 58.3968 57.1006 57.9954 57.2918 57.6077C57.4829 57.2199 57.7205 56.8677 58.0045 56.5509C58.283 56.2287 58.5833 55.9666 58.9056 55.7645L60.2736 57.1326C59.8858 57.3565 59.5281 57.6705 59.2005 58.0746C58.8728 58.4787 58.668 58.9511 58.5861 59.4918C58.5042 59.9778 58.5287 60.4448 58.6598 60.8926C58.7963 61.3349 59.0039 61.7554 59.2824 62.1541C59.5554 62.5473 59.8667 62.9187 60.2162 63.2682L64.6562 67.7081L63.1898 69.1745Z" fill="white"></path>
<path d="M79.5992 55.838C78.5781 56.5202 77.5353 56.8919 76.4708 56.953C75.4084 57.0033 74.3949 56.7656 73.4305 56.2396C72.4617 55.7073 71.6147 54.8985 70.8896 53.8132C70.1301 52.6766 69.6823 51.5546 69.5462 50.4473C69.4058 49.3336 69.5579 48.3031 70.0025 47.3558C70.4491 46.3979 71.1766 45.5821 72.1848 44.9084C73.2315 44.209 74.2818 43.8555 75.3357 43.848C76.396 43.8362 77.4074 44.1543 78.3699 44.8023C79.3387 45.4461 80.2094 46.4016 80.9819 47.6689L79.248 48.8274L78.8361 48.2109C77.963 46.9459 77.0657 46.166 76.1443 45.8714C75.2186 45.5703 74.2613 45.7502 73.2724 46.411C72.2128 47.119 71.6343 47.9978 71.5369 49.0475C71.4394 50.0972 71.8155 51.2578 72.6651 52.5293C73.4846 53.7559 74.3958 54.5218 75.3986 54.827C76.4014 55.1323 77.4133 54.9438 78.4344 54.2616C79.1215 53.8024 79.6136 53.2461 79.9106 52.5924C80.2077 51.9388 80.3033 51.22 80.1976 50.4362L82.2245 49.9039C82.4335 51.0925 82.2997 52.2129 81.8231 53.2652C81.3487 54.3067 80.6074 55.1643 79.5992 55.838ZM72.4089 53.3971L71.4886 52.0197L79.1753 46.8836L80.0957 48.261L72.4089 53.3971Z" fill="white"></path>
<path d="M109.886 33.3202L108.183 32.5369L109.504 29.9709L106.619 29.718L106.839 27.8552L109.694 28.3148L109.024 25.4832L110.865 25.1171L111.33 27.9894L113.792 26.472L114.708 28.1088L112.14 29.4466L114.33 31.3142L113.056 32.6897L111.012 30.6632L109.886 33.3202Z" fill="white"></path>
<path d="M133.047 123.816C132.658 124.026 132.415 124.425 132.415 124.859V131.619H119.068C118.394 131.619 117.847 132.153 117.847 132.812C117.847 133.47 118.394 134.004 119.068 134.004H132.415V140.764C132.415 141.2 132.658 141.599 133.047 141.807C133.436 142.019 133.912 142.005 134.288 141.774L147.207 133.821C147.562 133.602 147.777 133.222 147.777 132.812C147.777 132.401 147.562 132.021 147.207 131.802L134.288 123.85C134.089 123.729 133.863 123.667 133.636 123.667C133.435 123.667 133.231 123.718 133.047 123.816Z" fill="white"></path>
<defs>
<linearGradient id="paint0_linear_1_96" x1="-43.6918" y1="-35.6183" x2="248.378" y2="301.093" gradientUnits="userSpaceOnUse">
<stop stop-color="#3644DB"></stop>
<stop offset="1" stop-color="#D15BB2"></stop>
</linearGradient>
</defs>
</svg>
