<svg width="32" height="32" viewBox="0 0 32 32" fill="none" xmlns="http://www.w3.org/2000/svg">
<path fill-rule="evenodd" clip-rule="evenodd" d="M16.3325 2.66699C22.3979 2.66699 27.3325 7.63899 27.3325 13.751C27.3325 21.2643 18.7245 28.667 16.3325 28.667C13.9405 28.667 5.33252 21.2643 5.33252 13.751C5.33252 7.63899 10.2672 2.66699 16.3325 2.66699ZM16.3325 4.66699C11.3699 4.66699 7.33252 8.74299 7.33252 13.751C7.33252 20.123 14.8312 26.331 16.3325 26.6617C17.8339 26.3297 25.3325 20.1217 25.3325 13.751C25.3325 8.74299 21.2952 4.66699 16.3325 4.66699ZM16.3339 9.33366C18.7232 9.33366 20.6672 11.2777 20.6672 13.6683C20.6672 16.0577 18.7232 18.0003 16.3339 18.0003C13.9445 18.0003 12.0005 16.0577 12.0005 13.6683C12.0005 11.2777 13.9445 9.33366 16.3339 9.33366ZM16.3339 11.3337C15.0472 11.3337 14.0005 12.3803 14.0005 13.6683C14.0005 14.955 15.0472 16.0003 16.3339 16.0003C17.6205 16.0003 18.6672 14.955 18.6672 13.6683C18.6672 12.3803 17.6205 11.3337 16.3339 11.3337Z" fill="#0D0D0D"></path>
</svg>
