<svg width="266" height="266" viewBox="0 0 266 266" fill="none" xmlns="http://www.w3.org/2000/svg">
<circle cx="133" cy="133" r="133" fill="url('#paint0_linear_1_234')"></circle>
<circle cx="133.5" cy="133.5" r="71.5" stroke="white" stroke-width="2"></circle>
<path d="M132.492 43.141C131.367 43.141 130.341 42.9428 129.413 42.5464C128.486 42.15 127.688 41.5821 127.019 40.8426C126.35 40.0955 125.833 39.196 125.468 38.1439C125.111 37.0843 124.932 35.8913 124.932 34.5648C124.932 32.8114 125.244 31.2944 125.867 30.0137C126.491 28.733 127.369 27.7457 128.501 27.052C129.634 26.3507 130.964 26 132.492 26C134.332 26 135.814 26.4307 136.939 27.2922C138.064 28.146 138.84 29.3161 139.265 30.8027L137.213 31.2258C136.871 30.2271 136.308 29.4305 135.525 28.8359C134.742 28.2413 133.765 27.9439 132.595 27.9439C131.371 27.9363 130.352 28.2108 129.539 28.7673C128.733 29.3161 128.125 30.0899 127.714 31.0886C127.304 32.0872 127.095 33.246 127.087 34.5648C127.08 35.876 127.281 37.0271 127.692 38.0182C128.102 39.0092 128.714 39.7868 129.527 40.3509C130.348 40.9074 131.371 41.1895 132.595 41.1971C133.651 41.2047 134.541 41.0027 135.263 40.591C135.985 40.1794 136.544 39.5848 136.939 38.8072C137.334 38.0296 137.574 37.0957 137.657 36.0056H134.168V34.3247H139.801C139.824 34.4771 139.835 34.6601 139.835 34.8735C139.843 35.0794 139.847 35.2204 139.847 35.2966C139.847 36.7984 139.566 38.1439 139.003 39.3332C138.448 40.5148 137.623 41.4448 136.529 42.1233C135.442 42.8018 134.096 43.141 132.492 43.141Z" fill="white"></path>
<path d="M145.905 44.3591C144.711 44.174 143.707 43.7486 142.894 43.0827C142.09 42.4105 141.513 41.5614 141.164 40.5353C140.815 39.5017 140.739 38.3482 140.935 37.075C141.141 35.7415 141.562 34.6266 142.2 33.7303C142.84 32.8266 143.635 32.1785 144.588 31.7861C145.55 31.3873 146.62 31.2793 147.799 31.462C149.024 31.6517 150.021 32.0954 150.79 32.7931C151.567 33.492 152.089 34.3982 152.356 35.5117C152.631 36.6265 152.626 37.9024 152.343 39.3396L150.315 39.0254L150.426 38.3022C150.635 36.7994 150.503 35.6335 150.031 34.8044C149.56 33.9678 148.746 33.4598 147.589 33.2806C146.349 33.0886 145.345 33.3419 144.576 34.0404C143.806 34.7389 143.307 35.8341 143.077 37.3258C142.856 38.7648 143.007 39.9298 143.531 40.821C144.055 41.7121 144.915 42.2502 146.109 42.4352C146.913 42.5598 147.64 42.4834 148.291 42.2062C148.941 41.9289 149.489 41.4699 149.933 40.8292L151.758 41.7944C151.118 42.7985 150.276 43.5242 149.23 43.9716C148.193 44.4126 147.085 44.5418 145.905 44.3591ZM142.314 37.7861L142.563 36.1701L151.556 37.563L151.307 39.179L142.314 37.7861Z" fill="white"></path>
<path d="M163.668 48.5424C162.929 48.4597 162.223 48.2957 161.551 48.0504C160.884 47.8147 160.325 47.4893 159.874 47.0743C159.425 46.652 159.147 46.1319 159.039 45.5139C158.954 44.9752 158.975 44.4661 159.102 43.9868C159.239 43.5025 159.403 42.9587 159.593 42.3555L162.937 31.7587L164.872 32.3728L161.556 42.8824C161.404 43.3621 161.278 43.7739 161.178 44.1178C161.084 44.464 161.068 44.7825 161.127 45.0733C161.241 45.6213 161.569 46.0249 162.109 46.2843C162.656 46.5459 163.351 46.7426 164.195 46.8744L163.668 48.5424ZM159.018 35.8763L159.524 34.2737L167.384 36.7682L166.878 38.3708L159.018 35.8763Z" fill="white"></path>
<path d="M184.481 60.0369C183.281 59.1904 182.48 58.2333 182.076 57.1657C181.683 56.0963 181.732 55.0263 182.222 53.9557L184.11 54.8818C183.862 55.527 183.87 56.1849 184.134 56.8557C184.402 57.5201 184.9 58.109 185.627 58.6221C186.317 59.1089 186.959 59.3471 187.552 59.3366C188.145 59.326 188.614 59.0745 188.959 58.5819C189.16 58.2951 189.257 58.0183 189.249 57.7516C189.245 57.4787 189.093 57.1196 188.792 56.6742C188.497 56.2332 188.016 55.6142 187.348 54.817C186.625 53.9529 186.098 53.2132 185.768 52.5979C185.437 51.9826 185.281 51.4299 185.3 50.9397C185.318 50.4494 185.496 49.9643 185.833 49.4842C186.248 48.8918 186.773 48.4883 187.407 48.2736C188.045 48.0528 188.738 48.0247 189.487 48.1894C190.242 48.3585 191.005 48.7149 191.776 49.2588C192.541 49.7982 193.14 50.4023 193.572 51.0709C194.005 51.7395 194.247 52.4276 194.299 53.1354C194.361 53.8412 194.219 54.5144 193.872 55.155L191.958 54.2664C192.258 53.6669 192.296 53.0555 192.074 52.4324C191.857 51.8136 191.41 51.2514 190.733 50.7459C190.098 50.2605 189.485 50.0008 188.896 49.967C188.312 49.9376 187.867 50.1411 187.561 50.5776C187.391 50.8208 187.319 51.0823 187.345 51.3621C187.378 51.6464 187.545 52.0111 187.846 52.4565C188.154 52.9062 188.632 53.5094 189.282 54.2659C190.014 55.1175 190.54 55.8572 190.862 56.485C191.195 57.1109 191.343 57.6814 191.307 58.1966C191.275 58.7055 191.075 59.2219 190.708 59.7456C190.026 60.7183 189.13 61.2331 188.022 61.2899C186.917 61.3405 185.737 60.9228 184.481 60.0369Z" fill="white"></path>
<path d="M198.537 71.6958C197.911 71.2927 197.352 70.8317 196.858 70.3128C196.364 69.8047 196.007 69.2643 195.787 68.6917C195.571 68.1135 195.552 67.5235 195.729 66.9217C195.891 66.401 196.135 65.9542 196.461 65.5813C196.798 65.2082 197.185 64.7937 197.623 64.3378L205.308 56.3294L206.771 57.7408L199.148 65.6833C198.8 66.0458 198.505 66.3588 198.263 66.6223C198.026 66.891 197.87 67.169 197.795 67.4562C197.655 67.998 197.77 68.5053 198.139 68.9781C198.513 69.4561 199.05 69.9418 199.747 70.4352L198.537 71.6958ZM199.975 58.2757L201.137 57.0646L207.077 62.7975L205.915 64.0087L199.975 58.2757Z" fill="white"></path>
<path d="M204.001 78.7959C203.444 78.0624 203.109 77.3453 202.997 76.6448C202.896 75.9458 202.969 75.3002 203.217 74.7082C203.469 74.1223 203.858 73.6283 204.384 73.2262C204.898 72.8334 205.416 72.5907 205.939 72.4982C206.472 72.4071 206.998 72.4457 207.518 72.6139C208.043 72.7775 208.568 73.0525 209.091 73.4387C209.573 73.8085 210.078 74.2467 210.606 74.7533C211.145 75.2614 211.68 75.7825 212.21 76.3166C212.74 76.8506 213.238 77.3476 213.702 77.8075L212.924 77.4819C213.808 76.8346 214.319 76.1666 214.455 75.4779C214.595 74.7953 214.325 74.0053 213.643 73.108C213.191 72.5139 212.659 72.0965 212.046 71.8558C211.443 71.6165 210.771 71.6371 210.028 71.9173L209.322 70.0269C210.36 69.6071 211.382 69.5495 212.388 69.8542C213.394 70.1589 214.318 70.866 215.162 71.9755C215.839 72.8667 216.26 73.7531 216.423 74.6346C216.597 75.5176 216.47 76.3434 216.041 77.1122C215.845 77.4827 215.582 77.8225 215.253 78.1315C214.93 78.436 214.575 78.7361 214.188 79.0318L208.13 83.6625L207.038 82.2257L209.387 80.4302L209.425 80.9331C208.352 81.1686 207.36 81.1078 206.448 80.7505C205.54 80.3993 204.725 79.7478 204.001 78.7959ZM205.539 78.0086C205.981 78.5906 206.467 79.0153 206.995 79.2825C207.534 79.5512 208.071 79.6865 208.608 79.6884C209.151 79.6857 209.655 79.5689 210.12 79.3381C210.491 79.198 210.864 78.99 211.237 78.7142C211.621 78.4398 211.913 78.2263 212.112 78.0738L212.296 78.8248C211.822 78.3528 211.359 77.8876 210.905 77.4291C210.452 76.9707 210.013 76.5442 209.589 76.1495C209.17 75.7503 208.772 75.4081 208.392 75.1229C208.105 74.9208 207.805 74.7524 207.492 74.6176C207.184 74.4889 206.869 74.4327 206.547 74.4489C206.235 74.4666 205.925 74.5933 205.617 74.829C205.351 75.0323 205.148 75.2931 205.007 75.6113C204.871 75.9356 204.836 76.298 204.902 76.6985C204.972 77.1051 205.184 77.5418 205.539 78.0086Z" fill="white"></path>
<path d="M211.028 88.5804L221.847 82.6807L222.713 84.278L220.098 85.7038L220.297 85.2568C220.7 85.202 221.096 85.1985 221.486 85.2465C221.879 85.3012 222.234 85.4066 222.553 85.5627C222.932 85.7202 223.278 85.9436 223.591 86.233C223.904 86.5224 224.17 86.8458 224.39 87.2032C224.616 87.557 224.78 87.9147 224.881 88.2762L223.208 89.1885C223.105 88.7588 222.908 88.3324 222.618 87.9091C222.328 87.4859 221.939 87.1599 221.452 86.9311C221.016 86.7176 220.568 86.6103 220.109 86.6091C219.653 86.6146 219.198 86.6934 218.744 86.8455C218.297 86.994 217.86 87.1848 217.432 87.4178L212.003 90.3786L211.028 88.5804Z" fill="white"></path>
<path d="M219.541 107.961C219.159 107.321 218.861 106.659 218.648 105.974C218.431 105.299 218.35 104.656 218.405 104.045C218.468 103.431 218.712 102.894 219.136 102.433C219.512 102.038 219.929 101.747 220.386 101.558C220.853 101.373 221.383 101.174 221.977 100.96L232.408 97.2031L233.094 99.1187L222.749 102.845C222.277 103.015 221.874 103.164 221.54 103.292C221.209 103.428 220.946 103.607 220.752 103.831C220.387 104.255 220.265 104.76 220.387 105.348C220.511 105.943 220.776 106.617 221.183 107.37L219.541 107.961ZM226.767 96.574L228.345 96.0058L231.131 103.787L229.554 104.355L226.767 96.574Z" fill="white"></path>
<path d="M221.458 117.591C221.228 116.402 221.288 115.31 221.638 114.318C221.997 113.332 222.599 112.501 223.444 111.824C224.296 111.146 225.353 110.684 226.614 110.439C227.935 110.182 229.124 110.203 230.18 110.502C231.245 110.8 232.122 111.332 232.812 112.098C233.511 112.871 233.975 113.845 234.202 115.02C234.438 116.24 234.358 117.331 233.964 118.293C233.57 119.262 232.896 120.061 231.941 120.689C230.988 121.325 229.789 121.752 228.345 121.971L227.954 119.951L228.67 119.811C230.151 119.5 231.201 118.981 231.819 118.255C232.445 117.528 232.647 116.588 232.424 115.435C232.185 114.201 231.608 113.338 230.692 112.849C229.777 112.359 228.58 112.258 227.103 112.545C225.677 112.822 224.635 113.359 223.976 114.155C223.317 114.951 223.102 115.944 223.332 117.134C223.487 117.935 223.805 118.595 224.285 119.115C224.765 119.635 225.381 119.997 226.132 120.2L225.843 122.248C224.685 121.984 223.719 121.434 222.945 120.599C222.181 119.769 221.685 118.766 221.458 117.591ZM226.413 111.98L228.013 111.669L229.746 120.627L228.145 120.938L226.413 111.98Z" fill="white"></path>
<path d="M223.033 131.574C222.989 130.423 223.237 129.426 223.775 128.581C224.321 127.736 225.075 127.07 226.038 126.583C227.001 126.104 228.098 125.84 229.328 125.793C230.559 125.746 231.672 125.924 232.669 126.328C233.666 126.74 234.462 127.346 235.055 128.148C235.656 128.948 235.979 129.92 236.022 131.063C236.067 132.228 235.823 133.218 235.292 134.032C234.76 134.846 234.012 135.473 233.047 135.915C232.083 136.364 230.982 136.612 229.743 136.66C228.521 136.707 227.407 136.543 226.404 136.17C225.409 135.804 224.607 135.236 224 134.466C223.4 133.696 223.078 132.731 223.033 131.574ZM224.9 131.754C224.932 132.584 225.156 133.258 225.571 133.776C225.994 134.294 226.56 134.665 227.268 134.89C227.984 135.121 228.791 135.22 229.687 135.186C230.599 135.151 231.395 134.99 232.076 134.705C232.766 134.426 233.294 134.017 233.661 133.477C234.036 132.936 234.208 132.262 234.177 131.454C234.145 130.616 233.914 129.931 233.483 129.398C233.052 128.873 232.482 128.491 231.773 128.251C231.064 128.019 230.277 127.919 229.411 127.953C228.537 127.986 227.752 128.15 227.056 128.444C226.367 128.737 225.828 129.158 225.438 129.707C225.049 130.264 224.869 130.946 224.9 131.754ZM223.523 135.423L232.581 135.074L232.573 134.846L239.922 134.563L240 136.609L223.592 137.239L223.523 135.423Z" fill="white"></path>
<path d="M228.873 160.265L230.314 159.108L231.989 161.408L233.484 158.974L235.026 159.992L233.363 162.308L236.15 162.97L235.66 164.756L232.928 163.896L233.177 166.74L231.333 166.825L231.288 163.966L228.679 165.073L228.03 163.341L230.715 162.433L228.873 160.265Z" fill="white"></path>
<path d="M208.005 185.26C208.616 184.313 209.34 183.557 210.176 182.991C211.012 182.426 211.921 182.063 212.904 181.902C213.892 181.745 214.926 181.799 216.005 182.063C217.086 182.339 218.182 182.837 219.292 183.558C220.76 184.511 221.86 185.598 222.593 186.819C223.326 188.04 223.675 189.315 223.64 190.646C223.612 191.98 223.182 193.291 222.352 194.577C221.352 196.125 220.185 197.139 218.853 197.618C217.527 198.101 216.126 198.117 214.65 197.668L215.412 195.71C216.433 195.965 217.406 195.924 218.329 195.589C219.253 195.253 220.032 194.592 220.669 193.607C221.34 192.581 221.664 191.574 221.641 190.587C221.619 189.61 221.302 188.678 220.689 187.789C220.077 186.901 219.221 186.095 218.121 185.372C217.027 184.653 215.954 184.197 214.902 184.003C213.849 183.81 212.866 183.903 211.952 184.281C211.039 184.669 210.248 185.377 209.576 186.403C208.995 187.288 208.681 188.146 208.633 188.978C208.585 189.81 208.779 190.603 209.215 191.359C209.651 192.114 210.302 192.823 211.169 193.486L213.066 190.549L214.473 191.463L211.411 196.204C211.271 196.141 211.112 196.051 210.933 195.935C210.757 195.829 210.636 195.756 210.573 195.714C209.316 194.898 208.342 193.93 207.653 192.81C206.965 191.701 206.635 190.501 206.662 189.211C206.685 187.927 207.133 186.61 208.005 185.26Z" fill="white"></path>
<path d="M199.816 195.911C200.62 195.006 201.522 194.392 202.521 194.07C203.521 193.758 204.545 193.734 205.594 193.998C206.648 194.266 207.655 194.829 208.614 195.686C209.619 196.584 210.323 197.545 210.726 198.569C211.135 199.599 211.245 200.621 211.056 201.636C210.867 202.662 210.375 203.622 209.581 204.515C208.757 205.443 207.844 206.041 206.841 206.309C205.834 206.584 204.792 206.53 203.715 206.15C202.633 205.775 201.567 205.078 200.518 204.058L201.883 202.522L202.428 203.009C203.573 204.001 204.62 204.524 205.571 204.577C206.527 204.635 207.395 204.226 208.174 203.349C209.008 202.41 209.342 201.427 209.176 200.4C209.009 199.373 208.364 198.357 207.24 197.353C206.156 196.384 205.099 195.878 204.068 195.835C203.037 195.792 202.12 196.223 201.315 197.128C200.774 197.737 200.443 198.391 200.322 199.089C200.2 199.787 200.287 200.497 200.581 201.22L198.782 202.231C198.289 201.147 198.139 200.043 198.333 198.92C198.528 197.807 199.022 196.804 199.816 195.911ZM207.27 196.461L208.487 197.548L202.433 204.361L201.216 203.273L207.27 196.461Z" fill="white"></path>
<path d="M186.659 208.589C187.13 208.011 187.651 207.506 188.222 207.074C188.782 206.641 189.358 206.347 189.951 206.193C190.548 206.044 191.135 206.093 191.711 206.338C192.208 206.559 192.622 206.854 192.954 207.221C193.285 207.6 193.652 208.033 194.053 208.521L201.105 217.096L199.539 218.391L192.545 209.887C192.226 209.499 191.95 209.169 191.717 208.897C191.477 208.631 191.22 208.443 190.944 208.335C190.423 208.134 189.908 208.19 189.397 208.503C188.881 208.822 188.338 209.3 187.769 209.938L186.659 208.589ZM199.788 211.559L200.855 212.856L194.494 218.116L193.428 216.82L199.788 211.559Z" fill="white"></path>
<path d="M165.725 219.86C167.086 219.31 168.323 219.155 169.436 219.396C170.545 219.646 171.414 220.269 172.043 221.264L170.242 222.35C169.837 221.79 169.282 221.439 168.577 221.296C167.875 221.161 167.112 221.26 166.287 221.593C165.504 221.91 164.956 222.32 164.643 222.825C164.329 223.33 164.285 223.861 164.509 224.42C164.64 224.745 164.819 224.977 165.047 225.115C165.277 225.26 165.661 225.327 166.197 225.316C166.726 225.308 167.506 225.239 168.536 225.11C169.652 224.971 170.558 224.93 171.252 224.986C171.947 225.043 172.495 225.212 172.895 225.494C173.295 225.776 173.605 226.189 173.823 226.734C174.093 227.405 174.146 228.066 173.981 228.716C173.819 229.374 173.465 229.973 172.921 230.514C172.369 231.057 171.656 231.506 170.781 231.859C169.914 232.21 169.083 232.385 168.288 232.386C167.494 232.386 166.786 232.216 166.165 231.875C165.541 231.544 165.054 231.059 164.707 230.418L166.491 229.29C166.83 229.868 167.321 230.233 167.963 230.384C168.599 230.538 169.312 230.468 170.104 230.173C170.855 229.902 171.405 229.527 171.754 229.049C172.096 228.574 172.168 228.089 171.969 227.594C171.858 227.318 171.678 227.116 171.429 226.986C171.173 226.859 170.777 226.802 170.241 226.813C169.697 226.827 168.933 226.902 167.946 227.038C166.836 227.191 165.93 227.232 165.23 227.162C164.525 227.101 163.967 226.916 163.556 226.605C163.147 226.302 162.823 225.854 162.584 225.26C162.141 224.157 162.197 223.123 162.752 222.159C163.31 221.202 164.301 220.436 165.725 219.86Z" fill="white"></path>
<path d="M148.327 225.354C149.004 225.046 149.694 224.826 150.397 224.692C151.091 224.553 151.737 224.546 152.336 224.672C152.937 224.805 153.442 225.109 153.849 225.585C154.197 226.004 154.438 226.453 154.573 226.93C154.702 227.417 154.839 227.968 154.982 228.584L157.508 239.406L155.531 239.87L153.027 229.137C152.913 228.647 152.811 228.228 152.722 227.881C152.626 227.536 152.478 227.253 152.279 227.034C151.901 226.621 151.414 226.442 150.818 226.496C150.214 226.552 149.516 226.739 148.724 227.058L148.327 225.354ZM158.778 233.859L159.16 235.495L151.133 237.379L150.751 235.742L158.778 233.859Z" fill="white"></path>
<path d="M139.414 226.094C140.331 226.023 141.113 226.131 141.76 226.418C142.4 226.713 142.901 227.125 143.262 227.656C143.615 228.187 143.817 228.783 143.867 229.444C143.917 230.09 143.838 230.658 143.632 231.148C143.418 231.646 143.1 232.068 142.677 232.414C142.254 232.768 141.739 233.06 141.131 233.29C140.56 233.495 139.919 233.682 139.207 233.851C138.489 234.029 137.762 234.196 137.027 234.352C136.292 234.508 135.605 234.656 134.968 234.797L135.664 234.319C135.725 235.415 136.006 236.208 136.509 236.697C137.004 237.186 137.812 237.388 138.934 237.301C139.677 237.244 140.315 237.023 140.85 236.638C141.378 236.261 141.726 235.683 141.895 234.906L143.861 235.339C143.648 236.441 143.141 237.333 142.339 238.014C141.537 238.695 140.443 239.089 139.056 239.196C137.942 239.282 136.971 239.154 136.145 238.812C135.311 238.479 134.689 237.923 134.279 237.144C134.075 236.777 133.934 236.371 133.854 235.926C133.775 235.489 133.716 235.027 133.679 234.541L133.096 226.924L134.892 226.786L135.118 229.739L134.677 229.498C135.063 228.467 135.653 227.664 136.448 227.091C137.235 226.518 138.224 226.186 139.414 226.094ZM139.237 227.816C138.509 227.872 137.89 228.05 137.379 228.349C136.862 228.657 136.456 229.036 136.163 229.487C135.87 229.945 135.694 230.433 135.634 230.949C135.55 231.338 135.521 231.765 135.549 232.229C135.57 232.701 135.59 233.063 135.609 233.314L134.881 233.06C135.533 232.918 136.175 232.781 136.805 232.648C137.435 232.516 138.031 232.378 138.592 232.236C139.153 232.101 139.656 231.951 140.101 231.787C140.427 231.655 140.731 231.494 141.014 231.304C141.289 231.114 141.507 230.88 141.669 230.6C141.823 230.328 141.886 229.998 141.856 229.61C141.83 229.276 141.723 228.963 141.532 228.672C141.335 228.381 141.051 228.155 140.68 227.992C140.302 227.83 139.821 227.771 139.237 227.816Z" fill="white"></path>
<path d="M127.405 226.69L126.462 239.004L124.654 238.865L124.882 235.889L125.148 236.299C124.975 236.668 124.763 237.003 124.511 237.305C124.251 237.606 123.97 237.848 123.666 238.032C123.328 238.265 122.953 238.435 122.541 238.541C122.129 238.647 121.713 238.695 121.294 238.686C120.875 238.684 120.487 238.628 120.13 238.516L120.275 236.612C120.691 236.759 121.155 236.825 121.667 236.811C122.179 236.797 122.663 236.647 123.119 236.361C123.535 236.11 123.868 235.792 124.119 235.406C124.362 235.019 124.543 234.593 124.663 234.129C124.781 233.671 124.859 233.2 124.897 232.713L125.37 226.533L127.405 226.69Z" fill="white"></path>
<path d="M106.556 223.322C107.299 223.347 108.016 223.457 108.704 223.65C109.388 223.833 109.97 224.115 110.451 224.494C110.931 224.881 111.248 225.378 111.403 225.986C111.529 226.517 111.547 227.026 111.457 227.513C111.357 228.007 111.235 228.561 111.092 229.178L108.566 240L106.59 239.536L109.095 228.803C109.209 228.313 109.303 227.893 109.377 227.542C109.444 227.19 109.436 226.871 109.354 226.586C109.199 226.048 108.842 225.671 108.283 225.453C107.718 225.235 107.009 225.092 106.158 225.025L106.556 223.322ZM112.159 235.594L111.777 237.23L103.75 235.347L104.132 233.71L112.159 235.594Z" fill="white"></path>
<path d="M97.4536 219.7C98.5746 220.153 99.4552 220.797 100.095 221.631C100.726 222.469 101.094 223.428 101.202 224.507C101.306 225.593 101.118 226.733 100.638 227.928C100.135 229.18 99.471 230.169 98.6461 230.896C97.8184 231.63 96.8962 232.079 95.8794 232.243C94.8527 232.412 93.7859 232.273 92.679 231.825C91.5297 231.361 90.6598 230.701 90.0691 229.846C89.4714 228.988 89.1691 227.986 89.1622 226.841C89.1483 225.693 89.4423 224.451 90.0443 223.116L91.948 223.886L91.6752 224.565C91.1309 225.98 90.9944 227.146 91.2659 228.061C91.5345 228.983 92.2117 229.664 93.2975 230.103C94.4609 230.573 95.4963 230.556 96.4039 230.051C97.3115 229.547 98.0466 228.595 98.6092 227.195C99.152 225.844 99.2694 224.675 98.9614 223.688C98.6534 222.7 97.9389 221.98 96.8178 221.527C96.0634 221.222 95.3381 221.13 94.6419 221.251C93.9456 221.373 93.3081 221.695 92.7294 222.217L91.1724 220.86C92.023 220.029 93.0082 219.514 94.1281 219.318C95.2382 219.125 96.3466 219.253 97.4536 219.7ZM99.4569 226.921L98.8474 228.438L90.4078 225.026L91.0173 223.51L99.4569 226.921Z" fill="white"></path>
<path d="M84.8944 213.426C85.881 214.014 86.5816 214.765 86.9959 215.677C87.4064 216.596 87.5538 217.593 87.4382 218.668C87.3161 219.739 86.9403 220.805 86.311 221.867C85.6817 222.928 84.927 223.769 84.0469 224.388C83.1603 225.004 82.2204 225.344 81.2272 225.408C80.2302 225.478 79.2416 225.222 78.2615 224.637C77.2617 224.041 76.5658 223.298 76.1737 222.408C75.7816 221.518 75.663 220.547 75.8178 219.495C75.9661 218.44 76.3568 217.378 76.99 216.31C77.6154 215.255 78.357 214.406 79.2149 213.765C80.0623 213.126 80.9734 212.76 81.9482 212.667C82.9191 212.581 83.9012 212.834 84.8944 213.426ZM83.729 214.9C83.0167 214.475 82.3309 214.297 81.6715 214.365C81.0082 214.439 80.3901 214.714 79.8171 215.188C79.2336 215.665 78.7127 216.29 78.2544 217.064C77.7882 217.85 77.4894 218.607 77.3581 219.336C77.2164 220.068 77.2719 220.735 77.5246 221.338C77.7735 221.947 78.2442 222.459 78.9368 222.871C79.6556 223.3 80.3551 223.478 81.0353 223.404C81.709 223.327 82.3389 223.055 82.925 222.589C83.5045 222.118 84.0157 221.509 84.4586 220.762C84.9053 220.009 85.195 219.259 85.3275 218.513C85.4562 217.774 85.3968 217.091 85.1491 216.465C84.895 215.834 84.4216 215.313 83.729 214.9ZM81.4067 211.746L76.7743 219.56L76.9703 219.677L73.212 226.017L71.4575 224.971L79.8483 210.817L81.4067 211.746Z" fill="white"></path>
<path d="M57.7058 202.746L57.8909 204.587L55.055 204.748L56.2799 207.329L54.5896 208.074L53.555 205.414L51.4866 207.401L50.2576 206.018L52.4625 204.185L49.9467 202.849L50.8783 201.251L53.295 202.767L53.7866 199.969L55.5891 200.365L54.8901 203.118L57.7058 202.746Z" fill="white"></path>
<path d="M48.1289 171.594C48.5891 172.623 48.8286 173.643 48.8472 174.654C48.8659 175.665 48.6756 176.628 48.2764 177.542C47.8703 178.46 47.2632 179.301 46.4552 180.065C45.6372 180.826 44.6247 181.477 43.4177 182.02C41.8223 182.737 40.3144 183.073 38.8941 183.026C37.4738 182.98 36.2163 182.58 35.1217 181.827C34.0202 181.078 33.157 180.004 32.5319 178.606C31.7794 176.922 31.5649 175.389 31.8886 174.008C32.2052 172.629 32.9528 171.441 34.1313 170.443L35.3559 172.148C34.5871 172.87 34.0924 173.71 33.8716 174.67C33.6508 175.63 33.7799 176.645 34.2588 177.716C34.7525 178.84 35.4189 179.659 36.258 180.176C37.0871 180.689 38.0399 180.929 39.1165 180.896C40.1931 180.863 41.333 180.58 42.5361 180.048C43.7324 179.518 44.6974 178.863 45.4312 178.082C46.1651 177.301 46.6223 176.423 46.8028 175.448C46.9734 174.469 46.8118 173.418 46.3181 172.295C45.8928 171.325 45.3451 170.594 44.6751 170.101C44.0051 169.609 43.2355 169.341 42.3663 169.297C41.4971 169.253 40.5494 169.416 39.5232 169.786L40.9505 172.979L39.421 173.666L37.1168 168.512C37.2462 168.428 37.408 168.343 37.6022 168.256C37.7864 168.165 37.9132 168.104 37.9826 168.072C39.3491 167.458 40.6884 167.165 42.0007 167.193C43.3028 167.218 44.4865 167.592 45.5516 168.316C46.6137 169.033 47.4727 170.126 48.1289 171.594Z" fill="white"></path>
<path d="M43.6653 158.911C43.9855 160.08 44.009 161.173 43.7356 162.189C43.4528 163.2 42.9162 164.075 42.1255 164.815C41.3276 165.556 40.3092 166.098 39.0704 166.439C37.773 166.797 36.5861 166.867 35.5096 166.65C34.4257 166.435 33.5104 165.971 32.7637 165.26C32.0076 164.543 31.4714 163.608 31.1551 162.454C30.8268 161.256 30.8227 160.162 31.1428 159.172C31.4609 158.176 32.072 157.327 32.9761 156.628C33.8781 155.92 35.0409 155.402 36.4643 155.073L37.0082 157.058L36.3045 157.252C34.8519 157.676 33.845 158.274 33.2837 159.045C32.7152 159.818 32.586 160.771 32.8962 161.903C33.2286 163.116 33.8699 163.931 34.8201 164.349C35.7703 164.767 36.9711 164.776 38.4224 164.377C39.8224 163.991 40.8206 163.376 41.4171 162.531C42.0135 161.687 42.1516 160.681 41.8313 159.512C41.6157 158.725 41.2488 158.091 40.7305 157.609C40.2122 157.128 39.5706 156.814 38.8056 156.669L38.9376 154.605C40.1127 154.779 41.1177 155.253 41.9526 156.027C42.7781 156.796 43.349 157.757 43.6653 158.911ZM39.1534 164.887L37.5812 165.32L35.17 156.521L36.7423 156.088L39.1534 164.887Z" fill="white"></path>
<path d="M40.2054 140.945C40.4326 141.656 40.5721 142.369 40.6238 143.084C40.6822 143.791 40.6149 144.436 40.4218 145.018C40.2211 145.602 39.8617 146.069 39.3436 146.421C38.8882 146.719 38.4164 146.908 37.9281 146.987C37.4315 147.06 36.8697 147.133 36.243 147.206L25.2328 148.48L25 146.458L35.9196 145.194C36.418 145.136 36.8442 145.083 37.1983 145.034C37.5514 144.978 37.8481 144.863 38.0883 144.69C38.5402 144.361 38.7737 143.897 38.7888 143.296C38.803 142.688 38.6975 141.972 38.4724 141.146L40.2054 140.945ZM30.5825 150.382L28.9174 150.575L27.9719 142.362L29.637 142.169L30.5825 150.382Z" fill="white"></path>
<path d="M42.1505 117.197C41.8712 118.642 41.3283 119.767 40.522 120.573C39.7097 121.37 38.7161 121.763 37.5412 121.752L37.6117 119.646C38.3002 119.609 38.8957 119.333 39.3981 118.817C39.8931 118.3 40.2252 117.603 40.3945 116.728C40.5552 115.897 40.5094 115.213 40.2573 114.674C40.0052 114.136 39.5844 113.81 38.9949 113.695C38.6516 113.628 38.3603 113.653 38.1209 113.77C37.8741 113.885 37.6097 114.171 37.3276 114.629C37.0469 115.079 36.6805 115.772 36.2282 116.71C35.7377 117.725 35.2801 118.509 34.8555 119.063C34.4308 119.618 33.9917 119.986 33.538 120.17C33.0844 120.354 32.5702 120.389 31.9956 120.278C31.2867 120.14 30.7049 119.825 30.2503 119.333C29.7883 118.839 29.479 118.216 29.3226 117.463C29.1676 116.703 29.1798 115.859 29.3593 114.931C29.5373 114.01 29.842 113.216 30.2734 112.546C30.7049 111.877 31.2319 111.374 31.8546 111.037C32.4713 110.691 33.1421 110.545 33.867 110.601L33.8413 112.716C33.1732 112.687 32.6012 112.902 32.1253 113.361C31.6509 113.812 31.3221 114.451 31.1391 115.277C30.9573 116.057 30.9716 116.724 31.1821 117.277C31.3939 117.823 31.7611 118.147 32.2835 118.249C32.5745 118.305 32.8419 118.264 33.0856 118.125C33.3307 117.979 33.5943 117.677 33.8764 117.219C34.16 116.754 34.513 116.069 34.9356 115.165C35.4113 114.147 35.8689 113.363 36.3084 112.811C36.742 112.251 37.2005 111.882 37.684 111.704C38.16 111.525 38.7115 111.497 39.3383 111.619C40.5025 111.845 41.3372 112.454 41.8424 113.445C42.3402 114.435 42.4428 115.686 42.1505 117.197Z" fill="white"></path>
<path d="M47.0093 99.5655C46.8986 100.303 46.7081 101.004 46.438 101.668C46.1775 102.328 45.8319 102.876 45.4011 103.312C44.9631 103.745 44.4342 104.004 43.8143 104.089C43.2742 104.154 42.7678 104.113 42.295 103.967C41.8177 103.811 41.2821 103.626 40.6883 103.412L30.2574 99.6555L30.9434 97.7399L41.2885 101.466C41.7607 101.636 42.1662 101.778 42.505 101.892C42.8464 101.999 43.1632 102.028 43.4552 101.979C44.0056 101.886 44.4204 101.573 44.6995 101.042C44.9812 100.504 45.2038 99.8143 45.3674 98.9741L47.0093 99.5655ZM34.2102 103.74L32.6327 103.172L35.4194 95.3911L36.9969 95.9593L34.2102 103.74Z" fill="white"></path>
<path d="M51.2348 91.6611C50.7954 92.4715 50.2799 93.0712 49.6883 93.4601C49.0936 93.8387 48.4762 94.0357 47.8362 94.0511C47.1998 94.0598 46.5911 93.9058 46.0101 93.589C45.4424 93.2794 45.0097 92.9046 44.7119 92.4645C44.411 92.014 44.2308 91.5166 44.1712 90.9721C44.105 90.424 44.1406 89.8317 44.2781 89.1951C44.4175 88.603 44.6096 87.9615 44.8544 87.2706C45.0962 86.5694 45.3516 85.867 45.6207 85.1633C45.8898 84.4597 46.1386 83.8013 46.3671 83.1884L46.3891 84.0334C45.4384 83.4889 44.6218 83.2953 43.9395 83.4525C43.2608 83.6031 42.6527 84.1739 42.1153 85.1651C41.7594 85.8214 41.5973 86.4793 41.6291 87.1388C41.6579 87.7879 41.9517 88.3951 42.5105 88.9602L41.0791 90.3793C40.2724 89.601 39.802 88.6893 39.6678 87.6442C39.5335 86.5991 39.7987 85.4638 40.4633 84.2382C40.9971 83.2537 41.6317 82.5064 42.3669 81.9962C43.0991 81.4757 43.9027 81.2544 44.7776 81.3323C45.1951 81.3604 45.6117 81.4618 46.0275 81.6365C46.4366 81.8075 46.8549 82.0096 47.2823 82.2426L53.9738 85.8917L53.1132 87.479L50.5187 86.0641L50.9607 85.8235C51.614 86.7091 51.9646 87.6423 52.0126 88.623C52.0642 89.597 51.8049 90.6097 51.2348 91.6611ZM49.8893 90.576C50.2379 89.933 50.4258 89.3153 50.453 88.7226C50.4771 88.1197 50.3802 87.5722 50.1624 87.0803C49.9379 86.5848 49.6255 86.1714 49.2253 85.8404C48.9458 85.5578 48.6042 85.3021 48.2005 85.0733C47.7937 84.8341 47.4801 84.6544 47.2597 84.5342L47.8679 84.0589C47.6321 84.6852 47.3984 85.2997 47.1669 85.9024C46.9353 86.505 46.7267 87.0811 46.5412 87.6307C46.3489 88.1767 46.2007 88.6816 46.0963 89.1453C46.03 89.491 45.9995 89.8345 46.0048 90.1758C46.0137 90.5104 46.0915 90.8218 46.2381 91.11C46.3816 91.3879 46.6236 91.6197 46.9642 91.8054C47.2581 91.9656 47.5785 92.0449 47.9255 92.0433C48.2762 92.0349 48.6203 91.9188 48.958 91.6951C49.2992 91.4647 49.6097 91.0917 49.8893 90.576Z" fill="white"></path>
<path d="M57.2635 81.2285L47.4696 73.7418L48.5687 72.2958L50.9356 74.1051L50.4475 74.1059C50.2328 73.7596 50.0676 73.3985 49.9519 73.0225C49.8409 72.6404 49.7913 72.2718 49.8032 71.9167C49.7912 71.5049 49.8529 71.0968 49.9883 70.6922C50.1237 70.2877 50.3091 69.9118 50.5444 69.5645C50.7737 69.2126 51.0322 68.9165 51.3199 68.6763L52.8343 69.834C52.4856 70.1042 52.178 70.4586 51.9115 70.8971C51.6451 71.3357 51.5075 71.8248 51.4987 72.3645C51.4828 72.8507 51.5682 73.3042 51.755 73.725C51.9464 74.1397 52.2041 74.5236 52.5283 74.8769C52.8463 75.2255 53.1989 75.5476 53.5858 75.8434L58.5008 79.6007L57.2635 81.2285Z" fill="white"></path>
<path d="M71.4157 65.5099C70.9901 66.1218 70.5093 66.6652 69.9733 67.1401C69.4482 67.6152 68.896 67.9524 68.317 68.1515C67.7326 68.3452 67.144 68.342 66.5511 68.1419C66.0384 67.9595 65.6026 67.6977 65.2435 67.3565C64.8847 67.0046 64.4865 66.6007 64.049 66.1448L56.3634 58.1363L57.8258 56.7249L65.4481 64.6674C65.796 65.0299 66.0966 65.3376 66.3498 65.5905C66.6085 65.8381 66.8795 66.0051 67.1628 66.0914C67.6973 66.2526 68.2072 66.1573 68.6924 65.8054C69.1831 65.4482 69.6876 64.9295 70.206 64.2493L71.4157 65.5099ZM58.0986 63.5557L56.9362 62.3446L62.8763 56.6116L64.0386 57.8228L58.0986 63.5557Z" fill="white"></path>
<path d="M79.3946 59.8166C78.406 60.5139 77.3886 60.9053 76.3426 60.9907C75.2984 61.0656 74.2956 60.8549 73.3342 60.3587C72.3684 59.8563 71.5159 59.0782 70.7768 58.0244C70.0027 56.9207 69.5357 55.8242 69.3757 54.7348C69.2113 53.6391 69.3366 52.6186 69.7517 51.6734C70.1687 50.7176 70.8652 49.8953 71.8414 49.2068C72.8549 48.4919 73.8801 48.1183 74.9169 48.0859C75.9599 48.0492 76.9626 48.3392 77.9249 48.9559C78.8934 49.5683 79.7727 50.4906 80.5626 51.7228L78.8839 52.907L78.464 52.3084C77.575 51.0807 76.6738 50.3324 75.7602 50.0634C74.8423 49.7882 73.9045 49.9883 72.947 50.6638C71.9211 51.3874 71.3726 52.2683 71.3014 53.3065C71.2303 54.3446 71.6277 55.4809 72.4936 56.7155C73.3289 57.9065 74.2436 58.6407 75.2375 58.9183C76.2314 59.1958 77.2227 58.9859 78.2113 58.2885C78.8766 57.8192 79.3477 57.2586 79.6246 56.6066C79.9015 55.9546 79.9787 55.2431 79.8561 54.472L81.838 53.8989C82.0717 55.0669 81.9664 56.1756 81.5223 57.2252C81.08 58.2642 80.3708 59.128 79.3946 59.8166ZM72.262 57.5779L71.3239 56.2404L78.7665 50.9906L79.7046 52.3281L72.262 57.5779Z" fill="white"></path>
<path d="M91.4726 52.6552C90.4439 53.166 89.4352 53.3478 88.4465 53.2008C87.4544 53.0469 86.5399 52.6291 85.7028 51.9473C84.8726 51.2622 84.1842 50.3663 83.6378 49.2596C83.0914 48.1528 82.7982 47.0607 82.7582 45.9832C82.725 44.9023 82.9514 43.9265 83.4376 43.0556C83.9203 42.1779 84.6726 41.4854 85.6945 40.978C86.7368 40.4604 87.737 40.2785 88.6951 40.4323C89.6532 40.586 90.5303 41.0139 91.3265 41.7159C92.1295 42.4146 92.8059 43.3207 93.3557 44.4343C93.8988 45.5342 94.2056 46.6195 94.2762 47.6903C94.3503 48.7509 94.1613 49.7167 93.7091 50.5877C93.2536 51.4519 92.5081 52.141 91.4726 52.6552ZM90.8727 50.8732C91.6153 50.5045 92.1373 50.0241 92.4388 49.4321C92.7368 48.8332 92.8431 48.1637 92.7576 47.4236C92.6756 46.6732 92.4355 45.8949 92.0375 45.0888C91.6327 44.269 91.1611 43.6057 90.6225 43.0991C90.0874 42.5822 89.4988 42.2662 88.8567 42.1512C88.2112 42.0293 87.5274 42.1477 86.8053 42.5063C86.056 42.8783 85.5271 43.3706 85.2188 43.9831C84.9172 44.5922 84.8024 45.2702 84.8743 46.0171C84.953 46.7606 85.1846 47.5218 85.5691 48.3006C85.957 49.0863 86.427 49.7376 86.9792 50.2545C87.5279 50.7646 88.1318 51.0858 88.7908 51.2179C89.4566 51.3467 90.1506 51.2318 90.8727 50.8732ZM94.7747 50.6328L90.7524 42.4859L90.548 42.5874L87.2846 35.9777L89.1137 35.0694L96.3995 49.826L94.7747 50.6328Z" fill="white"></path>
<path d="M115.19 35.5744L113.549 34.7295L114.956 32.2552L112.13 31.8831L112.425 30.0555L115.213 30.6302L114.675 27.8094L116.501 27.5266L116.836 30.3788L119.322 28.9872L120.153 30.6403L117.57 31.8503L119.645 33.7851L118.334 35.0874L116.409 33.002L115.19 35.5744Z" fill="white"></path>
<path d="M133.188 123.957C132.799 124.167 132.557 124.566 132.557 125V131.76H119.209C118.535 131.76 117.988 132.294 117.988 132.953C117.988 133.611 118.535 134.145 119.209 134.145H132.557V140.905C132.557 141.341 132.799 141.74 133.188 141.948C133.577 142.16 134.053 142.145 134.429 141.915L147.348 133.962C147.703 133.743 147.918 133.363 147.918 132.953C147.918 132.542 147.703 132.162 147.348 131.943L134.429 123.99C134.23 123.87 134.004 123.808 133.778 123.808C133.576 123.808 133.372 123.859 133.188 123.957Z" fill="white"></path>
<defs>
<linearGradient id="paint0_linear_1_234" x1="-43.8566" y1="-35.7527" x2="249.315" y2="302.229" gradientUnits="userSpaceOnUse">
<stop stop-color="#3644DB"></stop>
<stop offset="1" stop-color="#D15BB2"></stop>
</linearGradient>
</defs>
</svg>
