<svg width="24" height="24" viewBox="0 0 24 24" fill="none" xmlns="http://www.w3.org/2000/svg">
<g clip-path="url(#clip0_1_1397)">
<path d="M11.9968 8.32835C9.97522 8.32835 8.32546 9.97814 8.32546 11.9998C8.32546 14.0214 9.97522 15.6712 11.9968 15.6712C14.0184 15.6712 15.6681 14.0214 15.6681 11.9998C15.6681 9.97814 14.0184 8.32835 11.9968 8.32835ZM23.0081 11.9998C23.0081 10.4794 23.0218 8.97285 22.9364 7.45526C22.8511 5.69254 22.449 4.12813 21.16 2.83915C19.8683 1.54741 18.3066 1.14805 16.544 1.06266C15.0237 0.977282 13.5171 0.991054 11.9996 0.991054C10.4792 0.991054 8.9727 0.977282 7.45514 1.06266C5.69246 1.14805 4.12808 1.55016 2.83912 2.83915C1.5474 4.13089 1.14804 5.69254 1.06266 7.45526C0.977283 8.9756 0.991054 10.4822 0.991054 11.9998C0.991054 13.5173 0.977283 15.0267 1.06266 16.5443C1.14804 18.307 1.55015 19.8714 2.83912 21.1604C4.13083 22.4521 5.69246 22.8515 7.45514 22.9369C8.97545 23.0222 10.482 23.0085 11.9996 23.0085C13.5199 23.0085 15.0264 23.0222 16.544 22.9369C18.3066 22.8515 19.871 22.4494 21.16 21.1604C22.4517 19.8686 22.8511 18.307 22.9364 16.5443C23.0246 15.0267 23.0081 13.5201 23.0081 11.9998ZM11.9968 17.6487C8.87079 17.6487 6.34795 15.1258 6.34795 11.9998C6.34795 8.87369 8.87079 6.35081 11.9968 6.35081C15.1228 6.35081 17.6456 8.87369 17.6456 11.9998C17.6456 15.1258 15.1228 17.6487 11.9968 17.6487ZM17.877 7.43873C17.1471 7.43873 16.5577 6.84933 16.5577 6.11945C16.5577 5.38958 17.1471 4.80017 17.877 4.80017C18.6069 4.80017 19.1963 5.38958 19.1963 6.11945C19.1965 6.29276 19.1625 6.46442 19.0963 6.62458C19.0301 6.78474 18.9329 6.93026 18.8103 7.05281C18.6878 7.17536 18.5423 7.27253 18.3821 7.33875C18.222 7.40498 18.0503 7.43895 17.877 7.43873Z" fill="#0D0D0D"/>
</g>
<defs>
<clipPath id="clip0_1_1397">
<rect width="24" height="24" fill="white"/>
</clipPath>
</defs>
</svg>
