<svg width="48" height="48" viewBox="0 0 48 48" fill="none" xmlns="http://www.w3.org/2000/svg">
<path fill-rule="evenodd" clip-rule="evenodd" d="M26.198 14.2296L42.074 24.2316C42.512 24.5076 42.774 24.9856 42.774 25.5016C42.774 26.0156 42.512 26.4956 42.074 26.7696L26.198 36.7716C25.956 36.9256 25.678 37.0036 25.4 37.0036C25.15 37.0036 24.902 36.9396 24.676 36.8156C24.196 36.5516 23.9 36.0496 23.9 35.5036L23.898 27L7.5 27.0008C6.672 27.0008 6 26.3288 6 25.5008C6 24.6728 6.672 24.0008 7.5 24.0008L23.898 24L23.9 15.4996C23.9 14.9516 24.196 14.4496 24.676 14.1856C25.154 13.9236 25.74 13.9396 26.198 14.2296ZM26.9 18.2176L26.8997 25.4704C26.8999 25.4805 26.9 25.4907 26.9 25.5008L26.898 25.53L26.9 32.7836L38.46 25.5016L26.9 18.2176Z" fill="#0D0D0D"/>
</svg>
