<svg width="32" height="32" viewBox="0 0 32 32" fill="none" xmlns="http://www.w3.org/2000/svg">
<path fill-rule="evenodd" clip-rule="evenodd" d="M5.81255 6.74775C5.81522 6.74775 5.74855 6.81709 5.66455 6.89975C5.34188 7.21309 4.67388 7.86509 4.66715 9.22909C4.65655 11.1371 5.91122 14.6798 11.9525 20.7198C17.9659 26.7304 21.5032 27.9998 23.4152 27.9998H23.4432C24.8072 27.9931 25.4579 27.3238 25.7726 27.0024C25.8686 26.9038 25.9459 26.8318 26.0005 26.7864C27.3286 25.4504 28.0086 24.4558 28.0019 23.8184C27.9926 23.1678 27.1832 22.3984 26.0646 21.3344C25.7086 20.9958 25.3219 20.6278 24.9139 20.2198C23.8565 19.1651 23.3326 19.3451 22.1805 19.7504C20.5872 20.3091 18.4005 21.0691 15.0032 17.6704C11.6005 14.2704 12.3619 12.0864 12.9192 10.4931C13.3219 9.34109 13.5059 8.81575 12.4472 7.75709C12.0325 7.34375 11.6605 6.95175 11.3179 6.59175C10.2605 5.47975 9.49788 4.67575 8.85122 4.66642H8.84055C8.20188 4.66642 7.20988 5.34909 5.80588 6.75309C5.80988 6.74909 5.81122 6.74775 5.81255 6.74775ZM23.4165 29.9998C20.0939 29.9998 15.7619 27.3544 10.5392 22.1344C5.29655 16.8931 2.64722 12.5478 2.6671 9.21842C2.67922 7.01842 3.83255 5.89175 4.26588 5.46909C4.28855 5.44109 4.36588 5.36509 4.39255 5.33842C6.30455 3.42509 7.59388 2.65175 8.87655 2.66621C10.3659 2.68642 11.4259 3.80109 12.7672 5.21309C13.0992 5.56242 13.4592 5.94242 13.8605 6.34242C15.8072 8.28909 15.2526 9.87709 14.8072 11.1518C14.3219 12.5424 13.9019 13.7424 16.4165 16.2571C18.9339 18.7718 20.1339 18.3518 21.5192 17.8624C22.7952 17.4171 24.3792 16.8598 26.3286 18.8064C26.7232 19.2011 27.0979 19.5571 27.4432 19.8864C28.8619 21.2344 29.9819 22.2998 30.0008 23.7931C30.0166 25.0664 29.2432 26.3638 27.3339 28.2744L26.4886 27.7011L27.2032 28.3998C26.7806 28.8331 25.6552 29.9878 23.4539 29.9998H23.4165Z" fill="#0D0D0D"/>
</svg>
