<svg width="84" height="85" viewBox="0 0 84 85" fill="none" xmlns="http://www.w3.org/2000/svg">
<path d="M36.208 24.4678H17.1543C16.4295 24.4678 15.8418 25.0555 15.8418 25.7803C15.8418 26.505 16.4295 27.0928 17.1543 27.0928H36.208C36.9328 27.0928 37.5205 26.505 37.5205 25.7803C37.5205 25.0555 36.9328 24.4678 36.208 24.4678Z" fill="white"/>
<path d="M36.208 31.2683H17.1543C16.4295 31.2683 15.8418 31.856 15.8418 32.5808C15.8418 33.3056 16.4295 33.8933 17.1543 33.8933H36.208C36.9328 33.8933 37.5205 33.3056 37.5205 32.5808C37.5205 31.856 36.9328 31.2683 36.208 31.2683Z" fill="white"/>
<path d="M79.9016 47.2219L82.5888 40.6844C82.8541 40.0397 82.569 39.3001 81.9403 39.0002L76.9742 36.6321L75.3021 29.7641C75.1367 29.0867 74.4709 28.6561 73.7877 28.7835L68.3819 29.7846L67.7488 29.2472V4.9707C67.7488 4.24594 67.161 3.6582 66.4363 3.6582H9.87446C9.1497 3.6582 8.56196 4.24594 8.56196 4.9707V49.5616C4.46775 50.1672 1.3125 53.6945 1.3125 57.954C1.3125 61.0457 2.97806 63.7488 5.45383 65.2349V76.6898C5.45186 78.0267 5.45003 79.6903 6.5856 80.8272C7.25786 81.5001 8.19801 81.8416 9.38044 81.8416H14.8734C15.8106 81.8416 16.6607 81.4977 17.3365 80.9475H66.4364C67.1611 80.9475 67.7489 80.3598 67.7489 79.635V63.6337L73.9281 64.1005C74.6242 64.1652 75.2375 63.6545 75.3278 62.963L76.0462 57.5085L82.0641 53.7979C82.6574 53.432 82.8613 52.6668 82.528 52.0542L79.9016 47.2219ZM24.4549 6.2832H30.2111V15.1946L28.2726 13.2085C27.7778 12.7022 26.8883 12.7022 26.3936 13.2085L24.4549 15.1946V6.2832ZM9.80726 52.0849H13.4307V63.8236H9.80726C6.57077 63.8237 3.9375 61.1903 3.9375 57.954C3.9375 54.7176 6.57077 52.0849 9.80726 52.0849ZM20.629 48.578C21.6639 47.4355 22.6098 46.4108 23.8199 45.8614V70.0513C22.6098 69.5015 21.6639 68.4762 20.629 67.3331C19.3985 65.9735 18.0226 64.4804 16.0557 63.9976V51.9111C18.0226 51.4286 19.3985 49.9367 20.629 48.578ZM33.1053 55.3321H33.7424C35.1883 55.3321 36.3643 56.5081 36.3643 57.954C36.3643 59.3998 35.1883 60.5763 33.7424 60.5763H33.1053V55.3321ZM30.4803 65.7559C30.4803 68.8623 29.2845 70.2486 26.4448 70.4376V45.4754C29.2845 45.6642 30.4803 47.05 30.4803 50.1564V65.7559ZM9.38044 79.2167C9.06386 79.2167 8.64478 79.1745 8.44279 78.9719C8.07621 78.6054 8.07752 77.5447 8.07883 76.6931V66.271C8.63717 66.3869 9.21506 66.4487 9.80726 66.4487H13.4307V75.301C13.4307 76.0258 14.1485 76.6135 14.8733 76.6135C15.5911 76.6135 16.1749 77.1973 16.1749 77.9151C16.1749 78.6329 15.5911 79.2167 14.8733 79.2167H9.38044ZM18.7586 78.3227C18.773 78.1868 18.7999 78.0546 18.7999 77.9151C18.7999 76.186 17.6764 74.7146 16.0557 74.1924V66.765C16.905 67.1799 17.6813 67.9878 18.6833 69.0949C20.2983 70.8797 22.3094 73.1009 25.7611 73.1009C30.5656 73.1009 33.1054 70.5611 33.1054 65.7559V63.2013H33.7425C36.6354 63.2013 38.9894 60.8474 38.9894 57.954C38.9894 55.0611 36.6354 52.7071 33.7425 52.7071H33.1054V50.1564C33.1054 45.3519 30.5656 42.812 25.7611 42.812C22.3094 42.812 20.299 45.032 18.6833 46.8156C17.1985 48.4549 16.2141 49.4597 14.7432 49.4597H11.187V6.2832H21.8299V18.4187C21.8299 18.9525 22.1529 19.4331 22.6476 19.6345C23.1404 19.835 23.7089 19.7185 24.0819 19.3352L27.3331 16.004L30.5843 19.3352C30.8361 19.5935 31.1771 19.7313 31.5238 19.7313C31.6904 19.7313 31.8583 19.7 32.0186 19.6346C32.5134 19.4334 32.8363 18.9528 32.8363 18.4188V6.2832H65.1239V27.0199L62.9917 25.2106C62.4591 24.7594 61.669 24.8018 61.1902 25.3087L57.4065 29.2982L50.3563 28.7655C49.6744 28.7188 49.0476 29.2122 48.9566 29.9031L48.2382 35.3536L42.2243 39.0688C41.6314 39.4347 41.4284 40.1993 41.7603 40.8113L44.3827 45.644L41.6994 52.1821C41.4354 52.8268 41.7199 53.5651 42.3486 53.865L47.3109 56.233L48.9822 63.1019C49.1476 63.7786 49.8103 64.2074 50.4973 64.0824L55.903 63.0776L61.2927 67.6547C61.5394 67.8636 61.8413 67.9668 62.1419 67.9668C62.4905 67.9668 62.8372 67.829 63.0949 67.5573L65.1239 65.418V78.3227H18.7586ZM77.2979 47.9269L79.6287 52.2156L74.1377 55.602C73.8019 55.8089 73.577 56.1564 73.5257 56.5479L72.8875 61.3897L66.4544 60.9039C66.066 60.8764 65.6745 61.0238 65.4033 61.3096L62.0452 64.8498L57.1264 60.6733C56.8868 60.4702 56.5855 60.3612 56.2766 60.3612C56.1972 60.3612 56.1163 60.3683 56.0369 60.383L51.2393 61.2745L49.7141 55.0074C49.6205 54.6242 49.3604 54.3031 49.004 54.1333L44.5993 52.0312L47.048 46.0647C47.1974 45.6994 47.1756 45.2866 46.9871 44.94L44.6589 40.65L50.1479 37.2591C50.4837 37.0521 50.708 36.7047 50.7592 36.3139L51.3968 31.4766L57.8306 31.9631C58.2267 32.0002 58.6105 31.8445 58.8816 31.5574L62.2405 28.016L67.1592 32.19C67.4597 32.4444 67.8603 32.5508 68.2474 32.4797L73.045 31.5908L74.5709 37.8592C74.6645 38.2431 74.9252 38.5641 75.2809 38.734L79.6888 40.8354L77.2368 46.8013C77.0863 47.1661 77.1087 47.5802 77.2979 47.9269Z" fill="white"/>
<path d="M68.932 39.6438C68.4193 39.1311 67.5888 39.1311 67.076 39.6438L55.3532 51.3665C54.8406 51.8792 54.8406 52.7097 55.3532 53.2225C55.6096 53.4788 55.9454 53.6071 56.2812 53.6071C56.6169 53.6071 56.9528 53.4788 57.2091 53.2225L68.9318 41.4998C69.4448 40.987 69.4448 40.1564 68.932 39.6438Z" fill="white"/>
<path d="M57.7942 70.0222H37.6768C36.952 70.0222 36.3643 70.61 36.3643 71.3347C36.3643 72.0595 36.952 72.6472 37.6768 72.6472H57.7942C58.519 72.6472 59.1067 72.0595 59.1067 71.3347C59.1067 70.61 58.519 70.0222 57.7942 70.0222Z" fill="white"/>
<path d="M66.4363 48.0044C64.3502 48.0044 62.6533 49.7033 62.6533 51.7914C62.6533 53.8774 64.3504 55.5744 66.4363 55.5744C68.5243 55.5744 70.2233 53.8773 70.2233 51.7914C70.2232 49.7034 68.5243 48.0044 66.4363 48.0044ZM66.4363 52.9494C65.7981 52.9494 65.2783 52.4296 65.2783 51.7914C65.2783 51.1505 65.7981 50.6294 66.4363 50.6294C67.0772 50.6294 67.5983 51.1505 67.5983 51.7914C67.5982 52.4296 67.0771 52.9494 66.4363 52.9494Z" fill="white"/>
<path d="M57.8478 44.8579C59.9364 44.8579 61.6353 43.1608 61.6353 41.0748C61.6353 38.9863 59.9364 37.2874 57.8478 37.2874C55.7624 37.2874 54.0654 38.9863 54.0654 41.0748C54.0654 43.1608 55.7624 44.8579 57.8478 44.8579ZM57.8478 39.9122C58.4887 39.9122 59.0103 40.4339 59.0103 41.0747C59.0103 41.713 58.4886 42.2327 57.8478 42.2327C57.2095 42.2327 56.6904 41.713 56.6904 41.0747C56.6904 40.4339 57.2095 39.9122 57.8478 39.9122Z" fill="white"/>
</svg>
