<svg width="64" height="65" viewBox="0 0 64 65" fill="none" xmlns="http://www.w3.org/2000/svg">
<path d="M47.6162 8.5C53.7068 8.5 58.6642 13.412 58.6642 19.447L58.6668 26.5865C58.6668 27.1097 58.4562 27.617 58.0828 27.987C57.7068 28.3595 57.2002 28.5683 56.6668 28.5683C54.4775 28.5683 52.6962 30.3333 52.6962 32.5026C52.6962 34.672 54.4775 36.437 56.6668 36.437C57.7708 36.437 58.6668 37.3248 58.6668 38.4188V45.5556C58.6668 51.5906 53.7122 56.5 47.6215 56.5H16.3815C10.2908 56.5 5.3335 51.5906 5.3335 45.5556V38.4188C5.3335 37.3248 6.2295 36.437 7.3335 36.437C9.5255 36.437 11.3068 34.672 11.3068 32.5026C11.3068 30.3888 9.5975 28.7981 7.3335 28.7981C6.80283 28.7981 6.29616 28.5894 5.92016 28.2168C5.54416 27.8443 5.3335 27.3396 5.3335 26.8164L5.33883 19.447C5.33883 13.412 10.2935 8.5 16.3842 8.5H47.6162ZM32.0055 22.2426C31.2482 22.2426 30.5708 22.6601 30.2322 23.3312L28.2882 27.2339L23.9522 27.8601C23.2028 27.9658 22.5895 28.4731 22.3522 29.1866C22.1175 29.9 22.3068 30.6715 22.8508 31.1947L25.9948 34.2281L25.2535 38.5165C25.1255 39.2564 25.4268 39.9909 26.0402 40.4322C26.3868 40.6779 26.7895 40.8047 27.1975 40.8047C27.5095 40.8047 27.8242 40.7281 28.1122 40.5775L32.0002 38.5535L35.8802 40.5722C36.5522 40.9289 37.3495 40.8734 37.9602 40.4295C38.5762 39.9909 38.8775 39.2564 38.7495 38.5165L38.0055 34.2281L41.1495 31.1947C41.6962 30.6715 41.8855 29.9 41.6482 29.1866C41.4135 28.4731 40.8002 27.9658 40.0588 27.8628L35.7148 27.2339L33.7708 23.3339C33.4375 22.6627 32.7602 22.2452 32.0055 22.2426Z" fill="url(#paint0_linear_1_340)"/>
<defs>
<linearGradient id="paint0_linear_1_340" x1="-3.45981" y1="2.04839" x2="48.3823" y2="68.455" gradientUnits="userSpaceOnUse">
<stop stop-color="#3644DB"/>
<stop offset="1" stop-color="#D15BB2"/>
</linearGradient>
</defs>
</svg>
