<svg width="84" height="85" viewBox="0 0 84 85" fill="none" xmlns="http://www.w3.org/2000/svg">
<path d="M69.0674 34.7459C69.0674 36.9082 70.8265 38.668 72.9895 38.668C75.1525 38.668 76.9117 36.9082 76.9117 34.7459C76.9117 32.5835 75.1525 30.8237 72.9895 30.8237C70.8265 30.8237 69.0674 32.5835 69.0674 34.7459ZM72.9894 33.4487C73.7046 33.4487 74.2865 34.0307 74.2865 34.7459C74.2865 35.4611 73.7046 36.043 72.9894 36.043C72.2742 36.043 71.6923 35.4611 71.6923 34.7459C71.6923 34.0307 72.2742 33.4487 72.9894 33.4487Z" fill="white"/>
<path d="M62.6189 30.8237C60.4561 30.8237 58.6968 32.5835 58.6968 34.7459C58.6968 36.9082 60.4559 38.668 62.6189 38.668C64.7813 38.668 66.5404 36.9082 66.5404 34.7459C66.5404 32.5835 64.7811 30.8237 62.6189 30.8237ZM62.6189 36.0429C61.9037 36.0429 61.3218 35.4609 61.3218 34.7457C61.3218 34.0306 61.9037 33.4486 62.6189 33.4486C63.3334 33.4486 63.9154 34.0306 63.9154 34.7457C63.9154 35.4609 63.3334 36.0429 62.6189 36.0429Z" fill="white"/>
<path d="M52.2517 30.8237C50.0889 30.8237 48.3296 32.5835 48.3296 34.7459C48.3296 36.9082 50.0887 38.668 52.2517 38.668C54.4147 38.668 56.1739 36.9082 56.1739 34.7459C56.1739 32.5835 54.4147 30.8237 52.2517 30.8237ZM52.2517 36.0429C51.5366 36.0429 50.9546 35.4609 50.9546 34.7457C50.9546 34.0306 51.5366 33.4486 52.2517 33.4486C52.9669 33.4486 53.5489 34.0306 53.5489 34.7457C53.5489 35.4609 52.967 36.0429 52.2517 36.0429Z" fill="white"/>
<path d="M78.9941 25.7888H72.456V5.96299C72.456 3.93019 70.7994 2.27539 68.7627 2.27539H5.00076C2.96717 2.27539 1.3125 3.93019 1.3125 5.96299V56.0187C1.3125 58.0528 2.96717 59.7075 5.00076 59.7075H11.5441V79.5373C11.5441 81.5701 13.1988 83.2249 15.2329 83.2249H78.9941C81.0309 83.2249 82.6875 81.5702 82.6875 79.5373V29.4815C82.6875 27.4449 81.0309 25.7888 78.9941 25.7888ZM80.0625 29.4815V41.0735H14.169V29.4815C14.169 28.9022 14.656 28.4138 15.2327 28.4138H78.9941C79.5735 28.4138 80.0625 28.9022 80.0625 29.4815ZM5.00076 4.90039H68.7628C69.3517 4.90039 69.8312 5.37722 69.8312 5.96299V17.555H3.9375V5.96299C3.9375 5.37722 4.41433 4.90039 5.00076 4.90039ZM5.00076 57.0825C4.41433 57.0825 3.9375 56.6057 3.9375 56.0187V20.18H69.831V25.7888H15.2329C13.1988 25.7888 11.5441 27.4448 11.5441 29.4815V57.0825H5.00076ZM78.9941 80.5999H15.2329C14.6465 80.5999 14.1691 80.123 14.1691 79.5373V43.6987H80.0625V79.5374C80.0625 80.1128 79.5735 80.5999 78.9941 80.5999Z" fill="white"/>
<path d="M62.7576 15.1503C64.9205 15.1503 66.6797 13.3905 66.6797 11.2281C66.6797 9.06462 64.9206 7.30469 62.7576 7.30469C60.5946 7.30469 58.8354 9.06449 58.8354 11.2281C58.8354 13.3905 60.5947 15.1503 62.7576 15.1503ZM62.7576 9.92969C63.4728 9.92969 64.0547 10.5116 64.0547 11.2281C64.0547 11.9433 63.4728 12.5253 62.7576 12.5253C62.0424 12.5253 61.4604 11.9433 61.4604 11.2281C61.4604 10.5116 62.0424 9.92969 62.7576 9.92969Z" fill="white"/>
<path d="M52.3865 15.1503C54.5513 15.1503 56.3131 13.3905 56.3131 11.2281C56.3131 9.06462 54.5513 7.30469 52.3865 7.30469C50.2236 7.30469 48.4644 9.06449 48.4644 11.2281C48.4644 13.3905 50.2235 15.1503 52.3865 15.1503ZM52.3865 9.92969C53.1043 9.92969 53.6881 10.5116 53.6881 11.2281C53.6881 11.9433 53.1043 12.5253 52.3865 12.5253C51.6713 12.5253 51.0894 11.9433 51.0894 11.2281C51.0894 10.5116 51.6713 9.92969 52.3865 9.92969Z" fill="white"/>
<path d="M42.0203 15.1503C44.1826 15.1503 45.9418 13.3905 45.9418 11.2281C45.9418 9.06462 44.1826 7.30469 42.0203 7.30469C39.8574 7.30469 38.0981 9.06449 38.0981 11.2281C38.0981 13.3905 39.8574 15.1503 42.0203 15.1503ZM42.0203 9.92969C42.7348 9.92969 43.3168 10.5116 43.3168 11.2281C43.3168 11.9433 42.7348 12.5253 42.0203 12.5253C41.3051 12.5253 40.7231 11.9433 40.7231 11.2281C40.7231 10.5116 41.3051 9.92969 42.0203 9.92969Z" fill="white"/>
<path d="M47.7289 52.5967C48.4537 52.5967 49.0414 52.0096 49.0414 51.2842C49.0414 50.5588 48.4537 49.9717 47.7289 49.9717H21.0405C20.3158 49.9717 19.728 50.5588 19.728 51.2842C19.728 52.0096 20.3158 52.5967 21.0405 52.5967H47.7289Z" fill="white"/>
<path d="M39.0964 58.0029H21.7051C20.9803 58.0029 20.3926 58.59 20.3926 59.3154C20.3926 60.0408 20.9803 60.6279 21.7051 60.6279H39.0964C39.8211 60.6279 40.4089 60.0408 40.4089 59.3154C40.4089 58.59 39.8211 58.0029 39.0964 58.0029Z" fill="white"/>
<path d="M56.9826 68.6876L53.3328 73.1724C52.908 73.6953 52.1415 73.7748 51.6242 73.3544L48.6487 70.9344C48.1302 70.5114 48.0513 69.7449 48.4731 69.2258L55.6322 60.4267C56.0526 59.9076 56.8178 59.8294 57.3389 60.2537L58.3226 61.0535C58.8866 61.5099 59.712 61.4266 60.1689 60.8626C60.6264 60.2999 60.5412 59.4732 59.9786 59.0156L58.9942 58.2158C57.3509 56.8815 54.9298 57.1302 53.5955 58.7708L46.4363 67.57C45.1033 69.2093 45.3513 71.6318 46.9907 72.9687L49.9669 75.3898C50.6745 75.9667 51.5293 76.2473 52.3798 76.2473C53.4963 76.2473 54.6056 75.764 55.367 74.831L59.0186 70.3437C59.4761 69.7823 59.3916 68.9556 58.8296 68.4979C58.2669 68.0404 57.4415 68.1236 56.9826 68.6876Z" fill="white"/>
<path d="M66.5166 48.9792C65.7232 48.3318 64.7183 48.0294 63.7019 48.1371C62.6817 48.2409 61.7639 48.7357 61.1154 49.5303L57.4637 54.0228C57.0062 54.5855 57.092 55.4122 57.6541 55.8698C58.218 56.3273 59.0435 56.2415 59.5003 55.6788L63.1508 51.1889C63.3553 50.9377 63.6461 50.7814 63.9698 50.748C64.2935 50.7147 64.6069 50.8096 64.8581 51.0146L67.8343 53.4319C68.3432 53.8485 68.4246 54.6278 68.0099 55.1366L60.8501 63.9358C60.4284 64.4535 59.6639 64.5291 59.1435 64.1101L58.1604 63.3102C57.6002 62.8514 56.7717 62.9372 56.3141 63.4999C55.8572 64.0612 55.9418 64.888 56.5044 65.3456L57.4882 66.1468C58.1995 66.7248 59.0563 67.0056 59.9081 67.0056C61.0239 67.0056 62.1307 66.5223 62.8869 65.5919L70.046 56.794C71.3797 55.1572 71.1322 52.7374 69.4923 51.3967L66.5166 48.9792Z" fill="white"/>
</svg>
