<svg width="425" height="425" viewBox="0 0 425 425" fill="none" xmlns="http://www.w3.org/2000/svg">
<circle cx="212.5" cy="212.5" r="212.5" fill="url(#paint0_linear_1_37)"/>
<circle cx="213.299" cy="213.299" r="114.836" stroke="white" stroke-width="2"/>
<path d="M210.165 64.5992C208.27 64.5992 206.561 64.2772 205.037 63.6331C203.526 62.989 202.275 62.0724 201.284 60.8833C200.306 59.6818 199.668 58.2636 199.371 56.6286L202.789 56.0898C203.223 57.7743 204.121 59.0935 205.483 60.0472C206.858 60.9886 208.475 61.4593 210.332 61.4593C211.534 61.4593 212.618 61.2735 213.584 60.9019C214.562 60.5179 215.337 59.9729 215.906 59.2669C216.476 58.5608 216.761 57.7248 216.761 56.7586C216.761 56.1641 216.656 55.6562 216.445 55.2351C216.247 54.8016 215.968 54.4362 215.609 54.1389C215.262 53.8292 214.866 53.5691 214.42 53.3586C213.974 53.148 213.51 52.9746 213.027 52.8383L206.208 50.8132C205.465 50.5902 204.746 50.3115 204.053 49.9771C203.359 49.6303 202.74 49.2029 202.195 48.6951C201.65 48.1749 201.216 47.5555 200.894 46.8371C200.572 46.1063 200.411 45.2455 200.411 44.2546C200.411 42.6691 200.82 41.319 201.637 40.2042C202.467 39.0771 203.588 38.2162 205 37.6217C206.412 37.0271 208.004 36.736 209.775 36.7484C211.571 36.7608 213.175 37.0829 214.587 37.7146C216.012 38.3339 217.188 39.2257 218.117 40.39C219.059 41.5543 219.69 42.9478 220.012 44.5704L216.501 45.1836C216.315 44.0936 215.9 43.1584 215.256 42.378C214.624 41.5853 213.832 40.9784 212.878 40.5572C211.924 40.1237 210.877 39.9008 209.738 39.8884C208.648 39.876 207.663 40.0494 206.784 40.4086C205.904 40.7678 205.204 41.2695 204.684 41.9135C204.164 42.5453 203.904 43.276 203.904 44.1059C203.904 44.9234 204.139 45.5861 204.61 46.094C205.081 46.5894 205.657 46.9858 206.338 47.283C207.031 47.5679 207.707 47.8033 208.363 47.9891L213.454 49.4569C214.036 49.6179 214.705 49.8408 215.46 50.1257C216.228 50.4106 216.972 50.8132 217.69 51.3334C218.408 51.8412 219.003 52.5225 219.474 53.3771C219.944 54.2194 220.18 55.2846 220.18 56.5728C220.18 57.861 219.92 59.0068 219.399 60.0101C218.891 61.0133 218.179 61.8556 217.263 62.5369C216.346 63.2057 215.281 63.7136 214.067 64.0604C212.853 64.4196 211.553 64.5992 210.165 64.5992Z" fill="white"/>
<path d="M239.637 67.5266C237.705 67.1424 236.101 66.3813 234.825 65.2433C233.563 64.0957 232.683 62.6767 232.186 60.9865C231.691 59.2842 231.648 57.4065 232.056 55.3534C232.484 53.2032 233.249 51.423 234.35 50.0129C235.454 48.5907 236.795 47.5946 238.373 47.0245C239.966 46.4447 241.716 46.3445 243.623 46.7238C245.604 47.1177 247.196 47.908 248.399 49.0946C249.615 50.2836 250.401 51.7913 250.758 53.6177C251.127 55.4464 251.03 57.5174 250.469 59.8306L247.189 59.1781L247.421 58.0119C247.866 55.5871 247.732 53.6852 247.022 52.3062C246.313 50.915 245.024 50.0333 243.153 49.6612C241.148 49.2625 239.496 49.6031 238.195 50.683C236.894 51.7629 236.004 53.5056 235.526 55.9109C235.064 58.2313 235.229 60.1331 236.02 61.6165C236.811 63.0999 238.172 64.0337 240.104 64.418C241.404 64.6765 242.593 64.6036 243.671 64.1993C244.749 63.7949 245.673 63.0882 246.442 62.0793L249.344 63.7743C248.233 65.3593 246.811 66.4782 245.077 67.131C243.358 67.7741 241.544 67.906 239.637 67.5266ZM234.251 56.6046L234.769 53.9988L249.311 56.8913L248.793 59.4971L234.251 56.6046Z" fill="white"/>
<path d="M267.591 76.0717C265.771 75.318 264.347 74.2586 263.317 72.8935C262.303 71.5217 261.717 69.9584 261.559 68.2037C261.406 66.4375 261.73 64.5874 262.531 62.6535C263.37 60.628 264.467 59.0312 265.822 57.8631C267.182 56.6835 268.692 55.9681 270.351 55.7169C272.026 55.459 273.763 55.7022 275.559 56.4464C277.424 57.219 278.832 58.3046 279.781 59.7032C280.741 61.1066 281.218 62.7387 281.212 64.5996C281.216 66.4651 280.718 68.4775 279.716 70.6368L276.627 69.357L277.082 68.2584C277.991 65.9669 278.231 64.0756 277.803 62.5844C277.38 61.0817 276.287 59.9654 274.525 59.2355C272.636 58.4534 270.949 58.465 269.462 59.2703C267.976 60.0757 266.763 61.6113 265.825 63.8771C264.919 66.0628 264.71 67.9603 265.196 69.5695C265.683 71.1787 266.836 72.3602 268.655 73.1138C269.88 73.621 271.06 73.7815 272.196 73.5952C273.333 73.409 274.376 72.8961 275.327 72.0566L277.843 74.2852C276.444 75.623 274.831 76.4429 273.003 76.7449C271.192 77.0403 269.388 76.8159 267.591 76.0717ZM264.439 64.3088L265.456 61.8541L279.154 67.528L278.137 69.9826L264.439 64.3088Z" fill="white"/>
<path d="M307.559 99.3727L326.478 80.4543L328.606 82.5826L320.684 104.799L342.86 96.8371L345.015 98.9917L326.11 117.897L323.889 115.677L337.658 101.908L317.452 109.265L316.204 108.017L323.561 87.8114L309.78 101.593L307.559 99.3727Z" fill="white"/>
<path d="M334.209 130.859C333.101 129.201 332.52 127.518 332.467 125.811C332.42 124.114 332.845 122.497 333.74 120.961C334.635 119.424 335.942 118.081 337.662 116.932C339.413 115.762 341.168 115.066 342.926 114.845C344.685 114.623 346.332 114.87 347.869 115.587C349.415 116.296 350.732 117.464 351.82 119.092C352.934 120.76 353.519 122.448 353.572 124.155C353.635 125.856 353.216 127.469 352.314 128.995C351.43 130.525 350.127 131.864 348.407 133.014C346.667 134.177 344.916 134.878 343.154 135.116C341.402 135.348 339.747 135.113 338.19 134.411C336.644 133.701 335.316 132.517 334.209 130.859ZM336.819 129.115C337.975 130.845 339.412 131.747 341.13 131.821C342.848 131.894 344.623 131.319 346.457 130.094C348.341 128.835 349.554 127.406 350.095 125.808C350.647 124.203 350.351 122.546 349.209 120.836C348.431 119.672 347.529 118.89 346.501 118.489C345.474 118.088 344.372 118.012 343.198 118.261C342.023 118.509 340.828 119.04 339.613 119.852C337.739 121.104 336.524 122.541 335.969 124.163C335.414 125.785 335.698 127.436 336.819 129.115Z" fill="white"/>
<path d="M346.852 152.434L365.39 144.755L366.521 147.484L362.041 149.34L362.439 148.652C363.102 148.632 363.744 148.694 364.367 148.839C364.995 148.994 365.553 149.226 366.042 149.533C366.63 149.852 367.153 150.272 367.61 150.793C368.067 151.315 368.443 151.883 368.738 152.498C369.045 153.108 369.249 153.714 369.351 154.316L366.484 155.503C366.39 154.791 366.145 154.069 365.747 153.335C365.349 152.601 364.775 152.008 364.024 151.555C363.354 151.135 362.647 150.885 361.903 150.804C361.164 150.735 360.414 150.785 359.652 150.953C358.902 151.116 358.16 151.349 357.428 151.653L348.125 155.506L346.852 152.434Z" fill="white"/>
<path d="M356.541 184.932C356.157 183.001 356.246 181.228 356.809 179.613C357.387 178.008 358.361 176.652 359.732 175.546C361.116 174.437 362.834 173.678 364.887 173.27C367.037 172.842 368.974 172.867 370.698 173.345C372.435 173.821 373.868 174.679 374.999 175.919C376.144 177.169 376.907 178.747 377.286 180.654C377.68 182.635 377.559 184.408 376.923 185.974C376.29 187.552 375.198 188.856 373.647 189.884C372.099 190.924 370.149 191.628 367.797 191.995L367.144 188.715L368.311 188.483C370.721 187.965 372.427 187.115 373.429 185.93C374.443 184.743 374.764 183.215 374.392 181.344C373.993 179.339 373.046 177.943 371.551 177.154C370.055 176.365 368.105 176.21 365.699 176.689C363.379 177.15 361.685 178.03 360.617 179.329C359.549 180.627 359.208 182.242 359.592 184.174C359.85 185.474 360.373 186.544 361.159 187.386C361.945 188.227 362.951 188.81 364.178 189.134L363.723 192.464C361.833 192.044 360.255 191.159 358.988 189.807C357.736 188.464 356.921 186.84 356.541 184.932ZM364.571 175.777L367.177 175.258L370.069 189.8L367.463 190.318L364.571 175.777Z" fill="white"/>
<path d="M371.317 243.629L373.523 241.586L376.515 245.117L378.66 240.998L381.285 242.467L378.852 246.416L383.458 247.161L382.871 250.113L378.33 249.04L379.067 253.619L376.08 253.972L375.674 249.345L371.562 251.444L370.306 248.713L374.564 246.927L371.317 243.629Z" fill="white"/>
<path d="M333.997 296.877C335.049 295.301 336.267 294.059 337.649 293.15C339.024 292.251 340.481 291.72 342.02 291.557C343.563 291.411 345.097 291.668 346.621 292.329L345.17 295.471C343.528 294.896 341.933 294.91 340.383 295.513C338.836 296.133 337.547 297.215 336.514 298.76C335.847 299.759 335.399 300.763 335.172 301.773C334.947 302.8 334.97 303.747 335.241 304.613C335.511 305.479 336.048 306.18 336.851 306.717C337.346 307.047 337.826 307.242 338.294 307.301C338.764 307.377 339.223 307.348 339.67 307.214C340.12 307.098 340.556 306.913 340.979 306.659C341.402 306.405 341.804 306.116 342.186 305.79L347.658 301.245C348.256 300.751 348.887 300.309 349.55 299.918C350.224 299.534 350.924 299.256 351.649 299.085C352.384 298.921 353.14 298.905 353.916 299.036C354.703 299.174 355.508 299.519 356.332 300.069C357.65 300.95 358.545 302.04 359.018 303.339C359.494 304.655 359.587 306.065 359.297 307.57C359.007 309.074 358.365 310.559 357.37 312.025C356.362 313.512 355.203 314.667 353.894 315.49C352.587 316.33 351.192 316.813 349.708 316.938C348.217 317.074 346.707 316.825 345.179 316.192L346.62 312.931C347.63 313.382 348.638 313.557 349.645 313.455C350.655 313.37 351.6 313.048 352.48 312.489C353.37 311.937 354.137 311.191 354.78 310.25C355.396 309.35 355.799 308.435 355.989 307.505C356.179 306.574 356.151 305.713 355.904 304.923C355.668 304.139 355.205 303.517 354.515 303.056C353.835 302.602 353.153 302.429 352.469 302.539C351.796 302.655 351.146 302.913 350.521 303.315C349.899 303.733 349.328 304.164 348.809 304.606L344.76 308.024C344.303 308.418 343.746 308.85 343.089 309.32C342.425 309.801 341.678 310.195 340.846 310.503C340.025 310.818 339.128 310.934 338.156 310.851C337.194 310.774 336.178 310.378 335.107 309.662C334.035 308.947 333.227 308.094 332.682 307.104C332.13 306.124 331.825 305.064 331.768 303.924C331.721 302.79 331.891 301.622 332.277 300.42C332.653 299.211 333.226 298.03 333.997 296.877Z" fill="white"/>
<path d="M315.445 319.372C316.838 317.979 318.362 317.068 320.017 316.639C321.672 316.227 323.341 316.284 325.023 316.81C326.713 317.344 328.298 318.351 329.778 319.831C331.329 321.382 332.384 323.006 332.945 324.706C333.514 326.414 333.597 328.082 333.194 329.711C332.791 331.358 331.902 332.869 330.527 334.244C329.1 335.671 327.558 336.556 325.903 336.897C324.239 337.248 322.548 337.064 320.832 336.346C319.106 335.636 317.438 334.406 315.826 332.654L318.191 330.289L319.032 331.13C320.801 332.847 322.456 333.793 323.998 333.968C325.548 334.152 326.998 333.569 328.346 332.22C329.792 330.775 330.427 329.212 330.251 327.53C330.076 325.849 329.122 324.141 327.387 322.406C325.714 320.734 324.042 319.814 322.369 319.648C320.696 319.481 319.163 320.094 317.771 321.487C316.833 322.424 316.233 323.453 315.971 324.574C315.708 325.695 315.782 326.856 316.194 328.056L313.172 329.527C312.472 327.723 312.332 325.919 312.752 324.114C313.172 322.328 314.07 320.747 315.445 319.372ZM327.519 320.961L329.397 322.84L318.914 333.324L317.035 331.445L327.519 320.961Z" fill="white"/>
<path d="M292.81 337.867C294.447 336.773 296.12 336.177 297.827 336.079C299.531 335.998 301.156 336.379 302.703 337.223C304.257 338.077 305.615 339.374 306.778 341.114C307.996 342.937 308.714 344.737 308.932 346.513C309.158 348.299 308.914 349.951 308.201 351.47C307.484 353.007 306.318 354.315 304.701 355.396C303.022 356.517 301.338 357.084 299.647 357.096C297.947 357.115 296.325 356.605 294.781 355.566C293.227 354.533 291.831 353.001 290.592 350.968L293.373 349.11L294.034 350.099C295.434 352.128 296.873 353.379 298.351 353.851C299.835 354.334 301.37 354.046 302.956 352.986C304.656 351.85 305.584 350.441 305.74 348.757C305.896 347.074 305.293 345.213 303.93 343.173C302.616 341.206 301.155 339.978 299.547 339.488C297.938 338.999 296.315 339.301 294.678 340.395C293.576 341.132 292.787 342.024 292.31 343.072C291.834 344.12 291.68 345.273 291.85 346.53L288.599 347.384C288.264 345.478 288.479 343.681 289.243 341.993C290.004 340.323 291.193 338.947 292.81 337.867ZM304.341 341.782L305.817 343.991L293.49 352.228L292.013 350.019L304.341 341.782Z" fill="white"/>
<path d="M251.231 358.154L256.45 384.395L253.498 384.982L239.427 366.052L233.727 388.915L230.738 389.509L225.522 363.287L228.602 362.674L232.4 381.771L237.509 360.883L239.24 360.539L251.953 377.882L248.151 358.767L251.231 358.154Z" fill="white"/>
<path d="M210.453 361.996C212.447 361.996 214.169 362.448 215.618 363.353C217.055 364.257 218.163 365.508 218.944 367.106C219.724 368.703 220.114 370.537 220.114 372.605C220.114 374.711 219.718 376.556 218.925 378.142C218.132 379.727 217.011 380.96 215.562 381.839C214.113 382.731 212.41 383.177 210.453 383.177C208.446 383.177 206.718 382.725 205.269 381.821C203.82 380.929 202.711 379.684 201.943 378.086C201.163 376.501 200.773 374.674 200.773 372.605C200.773 370.512 201.163 368.666 201.943 367.068C202.724 365.483 203.838 364.238 205.288 363.334C206.737 362.442 208.459 361.996 210.453 361.996ZM210.453 365.136C208.372 365.136 206.824 365.83 205.808 367.217C204.792 368.604 204.284 370.4 204.284 372.605C204.284 374.872 204.798 376.674 205.827 378.012C206.855 379.362 208.397 380.037 210.453 380.037C211.852 380.037 213.004 379.721 213.909 379.089C214.813 378.458 215.488 377.584 215.934 376.47C216.38 375.355 216.603 374.067 216.603 372.605C216.603 370.351 216.082 368.542 215.042 367.18C214.001 365.817 212.472 365.136 210.453 365.136Z" fill="white"/>
<path d="M185.282 361.346L181.367 381.026L178.47 380.45L179.416 375.694L179.767 376.407C179.415 376.969 179.006 377.468 178.54 377.906C178.062 378.341 177.56 378.677 177.033 378.913C176.44 379.225 175.801 379.426 175.113 379.517C174.426 379.607 173.744 379.604 173.069 379.508C172.391 379.424 171.774 379.257 171.217 379.007L171.823 375.964C172.467 376.281 173.204 376.479 174.035 376.555C174.866 376.632 175.678 376.484 176.472 376.112C177.194 375.788 177.794 375.339 178.275 374.766C178.743 374.189 179.119 373.538 179.402 372.811C179.683 372.097 179.901 371.351 180.056 370.573L182.02 360.697L185.282 361.346Z" fill="white"/>
<path d="M152.877 351.347C154.697 352.1 156.122 353.16 157.152 354.525C158.165 355.897 158.751 357.46 158.909 359.215C159.063 360.981 158.739 362.831 157.938 364.765C157.099 366.79 156.001 368.387 154.646 369.555C153.286 370.735 151.776 371.45 150.117 371.702C148.442 371.959 146.706 371.716 144.909 370.972C143.044 370.199 141.637 369.114 140.688 367.715C139.727 366.312 139.25 364.68 139.257 362.819C139.252 360.953 139.75 358.941 140.752 356.782L143.842 358.061L143.387 359.16C142.478 361.452 142.237 363.343 142.665 364.834C143.089 366.337 144.181 367.453 145.944 368.183C147.832 368.965 149.519 368.953 151.006 368.148C152.492 367.343 153.705 365.807 154.644 363.541C155.549 361.356 155.758 359.458 155.272 357.849C154.785 356.24 153.632 355.058 151.813 354.305C150.589 353.797 149.408 353.637 148.272 353.823C147.136 354.009 146.092 354.522 145.141 355.362L142.625 353.133C144.024 351.795 145.637 350.976 147.465 350.673C149.276 350.378 151.081 350.603 152.877 351.347ZM156.029 363.11L155.012 365.564L141.314 359.89L142.331 357.436L156.029 363.11Z" fill="white"/>
<path d="M95.8639 331.023L96.3368 333.992L91.7386 334.517L93.972 338.59L91.292 339.956L89.3607 335.739L86.1814 339.155L84.0531 337.027L87.4689 333.847L83.2517 331.916L84.618 329.236L88.6907 331.469L89.2293 326.884L92.1985 327.357L91.3182 331.89L95.8639 331.023Z" fill="white"/>
<path d="M72.3242 270.409C73.0495 272.16 73.4061 273.862 73.394 275.516C73.3773 277.159 73.0092 278.665 72.2898 280.036C71.5543 281.4 70.4881 282.532 69.0913 283.432L67.2852 280.48C68.6757 279.435 69.5507 278.1 69.9105 276.476C70.2541 274.846 70.0703 273.172 69.3593 271.456C68.8995 270.346 68.3131 269.416 67.6001 268.665C66.8709 267.908 66.0711 267.401 65.2008 267.145C64.3305 266.889 63.449 266.946 62.5564 267.315C62.0071 267.543 61.5782 267.835 61.2697 268.19C60.945 268.539 60.7141 268.937 60.5769 269.382C60.4236 269.821 60.3349 270.287 60.311 270.779C60.2871 271.272 60.3047 271.767 60.3637 272.266L61.102 279.341C61.1805 280.113 61.1979 280.883 61.1544 281.652C61.0994 282.425 60.9416 283.161 60.681 283.859C60.4089 284.561 60.0026 285.199 59.4622 285.771C58.9102 286.349 58.1765 286.827 57.2611 287.206C55.7963 287.813 54.3925 287.952 53.0498 287.623C51.6908 287.288 50.4665 286.582 49.3768 285.504C48.2872 284.427 47.4092 283.068 46.7428 281.427C46.0669 279.763 45.7506 278.158 45.7939 276.612C45.8209 275.059 46.1946 273.63 46.9148 272.326C47.6302 271.011 48.6758 269.894 50.0517 268.976L51.962 271.985C51.026 272.574 50.3208 273.315 49.8464 274.209C49.3557 275.096 49.0984 276.061 49.0743 277.103C49.0387 278.15 49.2333 279.202 49.6579 280.26C50.0636 281.272 50.6007 282.115 51.2691 282.79C51.9375 283.465 52.6688 283.92 53.4629 284.154C54.2456 284.393 55.0203 284.353 55.787 284.036C56.5423 283.723 57.0645 283.252 57.3535 282.623C57.6312 281.998 57.7769 281.314 57.7909 280.571C57.7886 279.821 57.7477 279.108 57.6682 278.43L57.076 273.165C57.002 272.566 56.952 271.862 56.9261 271.055C56.8954 270.237 56.9829 269.396 57.1886 268.533C57.3829 267.675 57.7848 266.865 58.3943 266.103C58.9923 265.346 59.8864 264.721 61.0765 264.228C62.2666 263.735 63.4247 263.537 64.5507 263.634C65.672 263.719 66.7227 264.055 67.7028 264.641C68.6716 265.232 69.5484 266.021 70.3333 267.01C71.1297 267.994 71.7934 269.127 72.3242 270.409Z" fill="white"/>
<path d="M63.9269 242.486C64.3111 244.418 64.2218 246.191 63.659 247.806C63.0816 249.411 62.1073 250.766 60.7361 251.873C59.3528 252.981 57.6345 253.74 55.5815 254.148C53.4312 254.576 51.494 254.551 49.7697 254.073C48.0334 253.598 46.5999 252.74 45.4692 251.5C44.3239 250.25 43.5616 248.671 43.1822 246.764C42.7883 244.784 42.9092 243.011 43.5448 241.445C44.1781 239.866 45.2701 238.563 46.821 237.535C48.3695 236.494 50.3196 235.79 52.6715 235.424L53.3239 238.704L52.1577 238.936C49.7474 239.453 48.0412 240.304 47.0392 241.488C46.025 242.675 45.7039 244.204 46.0761 246.075C46.4748 248.079 47.4219 249.476 48.9175 250.264C50.413 251.053 52.3635 251.208 54.7688 250.73C57.0892 250.268 58.7832 249.388 59.851 248.09C60.9188 246.791 61.2605 245.176 60.8763 243.244C60.6178 241.945 60.0954 240.874 59.3092 240.033C58.523 239.191 57.5168 238.609 56.2904 238.284L56.7457 234.954C58.6351 235.374 60.2132 236.26 61.4798 237.612C62.7318 238.954 63.5475 240.579 63.9269 242.486ZM55.8974 251.642L53.2916 252.16L50.3991 237.618L53.0049 237.1L55.8974 251.642Z" fill="white"/>
<path d="M61.1241 213.598C61.1241 215.567 60.6905 217.289 59.8235 218.763C58.9441 220.225 57.724 221.364 56.1633 222.182C54.5903 222.999 52.7571 223.408 50.6638 223.408C48.4714 223.408 46.5763 223.005 44.9784 222.2C43.3682 221.395 42.1296 220.274 41.2625 218.837C40.3831 217.388 39.9434 215.691 39.9434 213.746C39.9434 211.727 40.4078 210.012 41.3368 208.6C42.2658 207.175 43.5911 206.11 45.3129 205.404C47.0346 204.686 49.0845 204.376 51.4627 204.475V207.82H50.2736C47.8087 207.857 45.9693 208.358 44.7555 209.325C43.5292 210.291 42.9161 211.727 42.9161 213.635C42.9161 215.679 43.5726 217.233 44.8855 218.298C46.1985 219.364 48.0812 219.896 50.5337 219.896C52.8995 219.896 54.7327 219.364 56.0333 218.298C57.3338 217.233 57.9841 215.716 57.9841 213.746C57.9841 212.421 57.6807 211.269 57.0737 210.291C56.4668 209.312 55.5936 208.544 54.454 207.987L55.5502 204.81C57.3215 205.59 58.6963 206.767 59.6749 208.34C60.641 209.9 61.1241 211.653 61.1241 213.598ZM51.4627 221.011H48.8058V206.185H51.4627V221.011Z" fill="white"/>
<path d="M67.3561 167.547L42.6381 157.309L43.79 154.528L67.3464 153.345L51.5044 135.904L52.6705 133.088L77.3713 143.32L76.1697 146.221L58.1805 138.769L72.71 154.622L72.0346 156.252L50.5513 157.188L68.5577 164.646L67.3561 167.547Z" fill="white"/>
<path d="M86.2476 130.877C85.1397 132.535 83.8072 133.716 82.2503 134.418C80.7002 135.111 79.0441 135.337 77.282 135.098C75.5199 134.86 73.7789 134.166 72.059 133.016C70.3082 131.846 68.9939 130.492 68.116 128.952C67.2382 127.412 66.8362 125.795 66.9101 124.101C66.9737 122.401 67.5492 120.737 68.6365 119.11C69.7513 117.441 71.0872 116.256 72.6441 115.553C74.1908 114.844 75.8417 114.614 77.5969 114.863C79.3487 115.095 81.0846 115.785 82.8045 116.935C84.545 118.098 85.8628 119.447 86.7578 120.984C87.6425 122.514 88.0582 124.132 88.0049 125.839C87.9413 127.54 87.3555 129.219 86.2476 130.877ZM83.6368 129.133C84.7929 127.402 85.0764 125.73 84.4872 124.115C83.898 122.499 82.6868 121.079 80.8536 119.854C78.9689 118.595 77.1848 118.021 75.5014 118.133C73.8076 118.237 72.3896 119.145 71.2472 120.854C70.4696 122.018 70.0923 123.151 70.1152 124.254C70.1381 125.357 70.4891 126.403 71.1683 127.393C71.8474 128.383 72.7946 129.285 74.0099 130.097C75.8843 131.349 77.677 131.921 79.3879 131.813C81.0988 131.705 82.5151 130.811 83.6368 129.133Z" fill="white"/>
<path d="M101.342 110.94L87.1528 96.7514L89.2417 94.6625L92.6707 98.0914L91.8824 97.9863C91.6109 97.382 91.4226 96.7645 91.3175 96.1339C91.2211 95.4945 91.2211 94.8902 91.3175 94.3209C91.3876 93.6552 91.5759 93.0115 91.8824 92.3896C92.1889 91.7678 92.57 91.2029 93.0254 90.6949C93.4721 90.1781 93.9538 89.7577 94.4705 89.4336L96.6645 91.6276C96.0427 91.9867 95.469 92.4904 94.9435 93.1385C94.418 93.7866 94.0895 94.5442 93.9582 95.4113C93.8268 96.1908 93.8662 96.9397 94.0764 97.6579C94.2954 98.3673 94.6282 99.0417 95.0749 99.6811C95.5128 100.312 96.012 100.907 96.5726 101.468L103.693 108.588L101.342 110.94Z" fill="white"/>
<path d="M127.658 89.5514C126.021 90.6456 124.348 91.2416 122.641 91.3396C120.937 91.4204 119.312 91.0391 117.765 90.1956C116.212 89.3418 114.853 88.0446 113.69 86.3041C112.472 84.4812 111.754 82.6819 111.536 80.906C111.311 79.1198 111.555 77.4672 112.267 75.948C112.984 74.4116 114.151 73.1033 115.767 72.0229C117.446 70.9012 119.131 70.3343 120.821 70.3222C122.521 70.3033 124.143 70.8134 125.687 71.8527C127.241 72.8852 128.637 74.4176 129.876 76.45L127.095 78.308L126.435 77.3193C125.034 75.2905 123.595 74.0398 122.118 73.5673C120.633 73.0845 119.098 73.3729 117.512 74.4327C115.812 75.5681 114.885 76.9776 114.728 78.6611C114.572 80.3446 115.175 82.2059 116.538 84.2451C117.852 86.2122 119.313 87.4405 120.922 87.9301C122.53 88.4197 124.153 88.1174 125.79 87.0232C126.892 86.2869 127.682 85.3946 128.158 84.3463C128.634 83.298 128.788 82.1453 128.618 80.8881L131.869 80.0345C132.204 81.9408 131.989 83.7377 131.225 85.4252C130.464 87.0956 129.275 88.471 127.658 89.5514ZM116.127 85.6368L114.651 83.4277L126.979 75.1906L128.455 77.3997L116.127 85.6368Z" fill="white"/>
<path d="M176.232 53.4381L173.501 52.1818L175.618 48.0665L170.991 47.6609L171.344 44.6734L175.924 45.4105L174.85 40.8693L177.802 40.2821L178.548 44.8886L182.496 42.455L183.966 45.0801L179.846 47.2256L183.359 50.2208L181.316 52.4268L178.037 49.1768L176.232 53.4381Z" fill="white"/>
<path d="M213.377 198.573C212.753 198.91 212.364 199.55 212.364 200.246V211.087H190.958C189.877 211.087 189 211.944 189 213C189 214.056 189.877 214.913 190.958 214.913H212.364V225.754C212.364 226.453 212.753 227.093 213.377 227.427C214.001 227.766 214.764 227.743 215.367 227.373L236.086 214.619C236.655 214.267 237 213.658 237 213C237 212.342 236.655 211.732 236.086 211.381L215.367 198.627C215.048 198.433 214.685 198.333 214.322 198.333C213.999 198.333 213.672 198.415 213.377 198.573Z" fill="white"/>
<defs>
<linearGradient id="paint0_linear_1_37" x1="-70.0717" y1="-57.1237" x2="398.342" y2="482.885" gradientUnits="userSpaceOnUse">
<stop stop-color="#3644DB"/>
<stop offset="1" stop-color="#D15BB2"/>
</linearGradient>
</defs>
</svg>
