<svg width="64" height="64" viewBox="0 0 64 64" fill="none" xmlns="http://www.w3.org/2000/svg">
<path d="M47.6162 8C53.7068 8 58.6642 12.912 58.6642 18.947L58.6668 26.0865C58.6668 26.6097 58.4562 27.117 58.0828 27.487C57.7068 27.8595 57.2002 28.0683 56.6668 28.0683C54.4775 28.0683 52.6962 29.8333 52.6962 32.0026C52.6962 34.172 54.4775 35.937 56.6668 35.937C57.7708 35.937 58.6668 36.8248 58.6668 37.9188V45.0556C58.6668 51.0906 53.7122 56 47.6215 56H16.3815C10.2908 56 5.3335 51.0906 5.3335 45.0556V37.9188C5.3335 36.8248 6.2295 35.937 7.3335 35.937C9.5255 35.937 11.3068 34.172 11.3068 32.0026C11.3068 29.8888 9.5975 28.2981 7.3335 28.2981C6.80283 28.2981 6.29616 28.0894 5.92016 27.7168C5.54416 27.3443 5.3335 26.8396 5.3335 26.3164L5.33883 18.947C5.33883 12.912 10.2935 8 16.3842 8H47.6162ZM32.0055 21.7426C31.2482 21.7426 30.5708 22.1601 30.2322 22.8312L28.2882 26.7339L23.9522 27.3601C23.2028 27.4658 22.5895 27.9731 22.3522 28.6866C22.1175 29.4 22.3068 30.1715 22.8508 30.6947L25.9948 33.7281L25.2535 38.0165C25.1255 38.7564 25.4268 39.4909 26.0402 39.9322C26.3868 40.1779 26.7895 40.3047 27.1975 40.3047C27.5095 40.3047 27.8242 40.2281 28.1122 40.0775L32.0002 38.0535L35.8802 40.0722C36.5522 40.4289 37.3495 40.3734 37.9602 39.9295C38.5762 39.4909 38.8775 38.7564 38.7495 38.0165L38.0055 33.7281L41.1495 30.6947C41.6962 30.1715 41.8855 29.4 41.6482 28.6866C41.4135 27.9731 40.8002 27.4658 40.0588 27.3628L35.7148 26.7339L33.7708 22.8339C33.4375 22.1627 32.7602 21.7452 32.0055 21.7426Z" fill="url(#paint0_linear_1_349)"/>
<defs>
<linearGradient id="paint0_linear_1_349" x1="-3.45981" y1="1.54839" x2="48.3823" y2="67.955" gradientUnits="userSpaceOnUse">
<stop stop-color="#3644DB"/>
<stop offset="1" stop-color="#D15BB2"/>
</linearGradient>
</defs>
</svg>
