<svg width="32" height="32" viewBox="0 0 32 32" fill="none" xmlns="http://www.w3.org/2000/svg">
<g id="Message">
<g id="Iconly/Light-Outline/Message">
<g id="Message_2">
<path id="Combined-Shape" fill-rule="evenodd" clip-rule="evenodd" d="M22.2117 2.66699C26.6517 2.66699 29.9997 6.28966 29.9997 11.0937V20.251C29.9997 22.7097 29.1303 24.931 27.5503 26.507C26.133 27.919 24.2943 28.667 22.233 28.667H9.09567C7.03834 28.667 5.20101 27.9203 3.78234 26.507C2.20234 24.931 1.33301 22.7097 1.33301 20.251V11.0937C1.33301 6.28966 4.68101 2.66699 9.12101 2.66699H22.2117ZM22.2117 4.66699H9.12101C5.76767 4.66699 3.33301 7.36966 3.33301 11.0937V20.251C3.33301 22.175 3.99434 23.8937 5.19434 25.0897C6.22901 26.123 7.57967 26.667 9.09967 26.667H22.2117C22.2143 26.6643 22.225 26.667 22.233 26.667C23.7543 26.667 25.1037 26.123 26.1383 25.0897C27.3397 23.8937 27.9997 22.175 27.9997 20.251V11.0937C27.9997 7.36966 25.565 4.66699 22.2117 4.66699ZM24.313 10.8387C24.661 11.2667 24.5957 11.8961 24.1677 12.2454L18.2423 17.0614C17.493 17.6561 16.597 17.9534 15.7023 17.9534C14.8103 17.9534 13.921 17.6587 13.177 17.0694L7.19701 12.2481C6.76634 11.9014 6.69967 11.2707 7.04501 10.8414C7.39301 10.4134 8.02234 10.3454 8.45167 10.6907L14.4263 15.5067C15.177 16.1014 16.2343 16.1014 16.9903 15.5014L22.905 10.6934C23.3343 10.3427 23.9637 10.4094 24.313 10.8387Z" fill="#0D0D0D"/>
</g>
</g>
</g>
</svg>
